G04 ================== begin FILE IDENTIFICATION RECORD ==================*
G04 Layout Name:  Proiect1_versiunea1_PCB.brd*
G04 Film Name:    BOTTOM*
G04 File Format:  Gerber RS274X*
G04 File Origin:  Cadence Allegro 17.2-S025*
G04 Origin Date:  Thu Dec 16 13:17:41 2021*
G04 *
G04 Layer:  ETCH/BOTTOM*
G04 Layer:  PIN/BOTTOM*
G04 Layer:  VIA CLASS/BOTTOM*
G04 *
G04 Offset:    (0.0000 0.0000)*
G04 Mirror:    No*
G04 Mode:      Positive*
G04 Rotation:  0*
G04 FullContactRelief:  No*
G04 UndefLineWidth:     0.1000*
G04 ================== end FILE IDENTIFICATION RECORD ====================*
%FSLAX25Y25*MOMM*%
%IR0*IPPOS*OFA0.00000B0.00000*MIA0B0*SFA1.00000B1.00000*%
%ADD10C,.7*%
%ADD11C,.4*%
%ADD12C,.75*%
G75*
%LPD*%
G75*
G54D10*
X561000Y1125000D03*
X974000Y1279000D03*
X1126000Y1646280D03*
X1340360Y715360D03*
X1464000Y2138000D03*
X1472000Y1908140D03*
X1464000Y2589000D03*
X1634000Y2584000D03*
X1886000Y2818000D03*
X1740260Y3380000D03*
X2015000Y1242000D03*
X2395000Y1120000D03*
X2068280Y2159280D03*
X2501000Y1965000D03*
X2409360Y1755360D03*
X2068280Y2494000D03*
X2220720Y2670720D03*
X2715000Y3214000D03*
X2189000Y3289000D03*
X2292260Y3697000D03*
X2903640Y1299000D03*
X3086000Y2641000D03*
X3086260Y3026260D03*
X3759000Y794000D03*
X3702000Y3349720D03*
X3759000Y3232000D03*
G54D11*
G01X974000Y1279000D02*
Y1682860D01*
X1043000Y1751860D01*
X1315720D01*
X1472000Y1908140D01*
G01X1464000Y2138000D02*
Y2589000D01*
G01X2189000Y3289000D02*
X1730990Y2830990D01*
Y2699010D01*
X1759280Y2670720D01*
X2220720D01*
G01X1634000Y2584000D02*
X2461000D01*
X2501000Y2544000D01*
Y1965000D01*
G01X1886000Y2818000D02*
X2622000D01*
X2662000Y2778000D01*
Y2681000D01*
X2702000Y2641000D01*
X3086000D01*
G01X1740260Y3380000D02*
X2252260D01*
X2292260Y3420000D01*
Y3697000D01*
G01X2015000Y1242000D02*
Y1160000D01*
X2055000Y1120000D01*
X2395000D01*
G01X2409360Y1755360D02*
X2863640D01*
X2903640Y1715360D01*
Y1299000D01*
G01X2189000Y3289000D02*
X2499000D01*
X2539000Y3329000D01*
Y3482000D01*
X2579000Y3522000D01*
X3662000D01*
X3702000Y3482000D01*
Y3349720D01*
G01X3759000Y3232000D02*
Y794000D01*
G54D12*
G01X1340360Y715360D02*
Y1050000D01*
X1265360Y1125000D01*
X561000D01*
G01X1126000Y1646280D02*
X1993280D01*
X2068280Y1721280D01*
Y2159280D01*
G01Y2494000D02*
Y2159280D01*
G01X2715000Y3214000D02*
X3004260D01*
X3086260Y3132000D01*
Y3026260D01*
M02*
