M48
METRIC,TZ
T01C.4
;LEADER: 12 
;HEADER: 
;CODE  : ASCII 
;FILE  : Proiect1_versiunea1_PCB-1-2.drl for  ... layers TOP and BOTTOM
;DESIGN: Proiect1_versiunea1_PCB.brd
;T01 Holesize 1. = 0.400000 Tolerance = +0.000000/-0.000000 PLATED MM Quantity = 26
%
G90
T01
X3759000Y3232000
X3759000Y794000
X2903640Y1299000
X2409360Y1755360
X1886000Y2818000
X3086000Y2641000
X2501000Y1965000
X1472000Y1908140
X974000Y1279000
X1634000Y2584000
X2189000Y3289000
X2220720Y2670720
X3702000Y3349720
X1464000Y2138000
X1464000Y2589000
X2292260Y3697000
X1740260Y3380000
X2395000Y1120000
X2015000Y1242000
X2715000Y3214000
X3086260Y3026260
X2068280Y2159280
X1340360Y715360
X1126000Y1646280
X2068280Y2494000
X561000Y1125000
M30
