G04 ================== begin FILE IDENTIFICATION RECORD ==================*
G04 Layout Name:  Proiect1_versiunea1_PCB.brd*
G04 Film Name:    FAB*
G04 File Format:  Gerber RS274X*
G04 File Origin:  Cadence Allegro 17.2-S025*
G04 Origin Date:  Thu Dec 16 13:17:41 2021*
G04 *
G04 Layer:  MANUFACTURING/NCDRILL_LEGEND*
G04 Layer:  MANUFACTURING/NCDRILL_FIGURE*
G04 Layer:  MANUFACTURING/XSECTION_CHART*
G04 Layer:  MANUFACTURING/NCLEGEND-1-2*
G04 Layer:  DRAWING FORMAT/OUTLINE*
G04 Layer:  BOARD GEOMETRY/OUTLINE*
G04 Layer:  BOARD GEOMETRY/DESIGN_OUTLINE*
G04 *
G04 Offset:    (0.0000 0.0000)*
G04 Mirror:    No*
G04 Mode:      Positive*
G04 Rotation:  0*
G04 FullContactRelief:  No*
G04 UndefLineWidth:     0.1000*
G04 ================== end FILE IDENTIFICATION RECORD ====================*
%FSLAX25Y25*MOMM*%
%IR0*IPPOS*OFA0.00000B0.00000*MIA0B0*SFA1.00000B1.00000*%
%AMMACRO10*
1,1,.1,0.0,.5*
20,1,.1,0.0,.5,.5,-.5,0.0*
1,1,.1,.5,-.5*
20,1,.1,.5,-.5,-.5,-.5,0.0*
1,1,.1,-.5,-.5*
20,1,.1,-.5,-.5,0.0,.5,0.0*
1,1,.1,0.0,.5*
1,1,.1,.25,0.0*
20,1,.1,.25,0.0,-.25,0.0,0.0*
1,1,.1,-.25,0.0*
1,1,.1,0.0,.25*
20,1,.1,0.0,.25,0.0,-.25,0.0*
1,1,.1,0.0,-.25*
%
%ADD10MACRO10*%
%ADD11C,.1*%
G75*
%LPD*%
G75*
G36*
G01X-6062000Y3401860D02*
Y2816650D01*
X-5998500D01*
Y-1084790D01*
X-6062000D01*
Y-1670000D01*
X-5681000D01*
Y-1084790D01*
X-5744500D01*
Y2816650D01*
X-5681000D01*
Y3401860D01*
X-6062000D01*
G37*
G36*
G01X-6570000Y-1670000D02*
Y-1084790D01*
X-5046000D01*
Y-1670000D01*
X-6570000D01*
G37*
G36*
G01Y2816650D02*
Y3401860D01*
X-5046000D01*
Y2816650D01*
X-6570000D01*
G37*
G54D10*
X1164730Y-2607500D03*
X561000Y1125000D03*
X974000Y1279000D03*
X1126000Y1646280D03*
X1340360Y715360D03*
X1464000Y2138000D03*
X1472000Y1908140D03*
X1464000Y2589000D03*
X1634000Y2584000D03*
X1886000Y2818000D03*
X1740260Y3380000D03*
X2015000Y1242000D03*
X2395000Y1120000D03*
X2068280Y2159280D03*
X2501000Y1965000D03*
X2409360Y1755360D03*
X2068280Y2494000D03*
X2220720Y2670720D03*
X2715000Y3214000D03*
X2189000Y3289000D03*
X2292260Y3697000D03*
X2903640Y1299000D03*
X3086000Y2641000D03*
X3086260Y3026260D03*
X3759000Y794000D03*
X3702000Y3349720D03*
X3759000Y3232000D03*
G54D11*
G01X-7091000Y-2005000D02*
Y-1915000D01*
X-7061000D01*
X-7049000Y-1919500D01*
X-7040000Y-1925500D01*
X-7032500Y-1934500D01*
X-7026500Y-1945000D01*
X-7025000Y-1960000D01*
X-7026500Y-1975000D01*
X-7032500Y-1985500D01*
X-7040000Y-1994500D01*
X-7049000Y-2000500D01*
X-7061000Y-2005000D01*
X-7091000D01*
G01X-6928000D02*
X-6988000D01*
Y-1915000D01*
X-6928000D01*
G01X-6952000Y-1958500D02*
X-6988000D01*
G01X-6889500Y-1993000D02*
X-6877500Y-2000500D01*
X-6864000Y-2005000D01*
X-6852000D01*
X-6840000Y-2000500D01*
X-6831000Y-1993000D01*
X-6826500Y-1982500D01*
X-6829500Y-1972000D01*
X-6837000Y-1963000D01*
X-6850500Y-1957000D01*
X-6868500Y-1954000D01*
X-6879000Y-1948000D01*
X-6883500Y-1937500D01*
X-6880500Y-1927000D01*
X-6873000Y-1919500D01*
X-6862500Y-1915000D01*
X-6852000D01*
X-6841500Y-1918000D01*
X-6832500Y-1925500D01*
G01X-6776000Y-1915000D02*
X-6740000D01*
G01X-6758000D02*
Y-2005000D01*
G01X-6776000D02*
X-6740000D01*
G01X-6649000Y-1960000D02*
X-6619000D01*
Y-1987000D01*
X-6628000Y-1996000D01*
X-6638500Y-2002000D01*
X-6653500Y-2005000D01*
X-6668500Y-2002000D01*
X-6679000Y-1996000D01*
X-6688000Y-1987000D01*
X-6694000Y-1976500D01*
X-6697000Y-1964500D01*
Y-1954000D01*
X-6694000Y-1945000D01*
X-6688000Y-1934500D01*
X-6679000Y-1925500D01*
X-6670000Y-1919500D01*
X-6658000Y-1915000D01*
X-6647500D01*
X-6635500Y-1918000D01*
X-6626500Y-1924000D01*
G01X-6592500Y-2005000D02*
Y-1915000D01*
X-6523500Y-2005000D01*
Y-1915000D01*
G01X-6325000Y-1922500D02*
X-6334000Y-1918000D01*
X-6344500Y-1915000D01*
X-6356500D01*
X-6370000Y-1919500D01*
X-6380500Y-1927000D01*
X-6388000Y-1936000D01*
X-6394000Y-1951000D01*
X-6395500Y-1964500D01*
X-6392500Y-1978000D01*
X-6388000Y-1987000D01*
X-6379000Y-1996000D01*
X-6368500Y-2002000D01*
X-6358000Y-2005000D01*
X-6347500D01*
X-6337000Y-2002000D01*
X-6328000Y-1997500D01*
X-6320500Y-1991500D01*
G01X-6288000Y-2005000D02*
Y-1915000D01*
X-6250500D01*
X-6238500Y-1919500D01*
X-6231000Y-1925500D01*
X-6228000Y-1937500D01*
X-6231000Y-1949500D01*
X-6240000Y-1957000D01*
X-6250500Y-1961500D01*
X-6288000D01*
G01X-6250500D02*
X-6228000Y-2005000D01*
G01X-6158000D02*
X-6170000Y-2003500D01*
X-6180500Y-1997500D01*
X-6189500Y-1988500D01*
X-6195500Y-1978000D01*
X-6198500Y-1966000D01*
Y-1954000D01*
X-6195500Y-1942000D01*
X-6189500Y-1931500D01*
X-6180500Y-1922500D01*
X-6170000Y-1916500D01*
X-6158000Y-1915000D01*
X-6146000Y-1916500D01*
X-6135500Y-1922500D01*
X-6126500Y-1931500D01*
X-6120500Y-1942000D01*
X-6117500Y-1954000D01*
Y-1966000D01*
X-6120500Y-1978000D01*
X-6126500Y-1988500D01*
X-6135500Y-1997500D01*
X-6146000Y-2003500D01*
X-6158000Y-2005000D01*
G01X-6089500Y-1993000D02*
X-6077500Y-2000500D01*
X-6064000Y-2005000D01*
X-6052000D01*
X-6040000Y-2000500D01*
X-6031000Y-1993000D01*
X-6026500Y-1982500D01*
X-6029500Y-1972000D01*
X-6037000Y-1963000D01*
X-6050500Y-1957000D01*
X-6068500Y-1954000D01*
X-6079000Y-1948000D01*
X-6083500Y-1937500D01*
X-6080500Y-1927000D01*
X-6073000Y-1919500D01*
X-6062500Y-1915000D01*
X-6052000D01*
X-6041500Y-1918000D01*
X-6032500Y-1925500D01*
G01X-5989500Y-1993000D02*
X-5977500Y-2000500D01*
X-5964000Y-2005000D01*
X-5952000D01*
X-5940000Y-2000500D01*
X-5931000Y-1993000D01*
X-5926500Y-1982500D01*
X-5929500Y-1972000D01*
X-5937000Y-1963000D01*
X-5950500Y-1957000D01*
X-5968500Y-1954000D01*
X-5979000Y-1948000D01*
X-5983500Y-1937500D01*
X-5980500Y-1927000D01*
X-5973000Y-1919500D01*
X-5962500Y-1915000D01*
X-5952000D01*
X-5941500Y-1918000D01*
X-5932500Y-1925500D01*
G01X-5789500Y-1993000D02*
X-5777500Y-2000500D01*
X-5764000Y-2005000D01*
X-5752000D01*
X-5740000Y-2000500D01*
X-5731000Y-1993000D01*
X-5726500Y-1982500D01*
X-5729500Y-1972000D01*
X-5737000Y-1963000D01*
X-5750500Y-1957000D01*
X-5768500Y-1954000D01*
X-5779000Y-1948000D01*
X-5783500Y-1937500D01*
X-5780500Y-1927000D01*
X-5773000Y-1919500D01*
X-5762500Y-1915000D01*
X-5752000D01*
X-5741500Y-1918000D01*
X-5732500Y-1925500D01*
G01X-5628000Y-2005000D02*
X-5688000D01*
Y-1915000D01*
X-5628000D01*
G01X-5652000Y-1958500D02*
X-5688000D01*
G01X-5525000Y-1922500D02*
X-5534000Y-1918000D01*
X-5544500Y-1915000D01*
X-5556500D01*
X-5570000Y-1919500D01*
X-5580500Y-1927000D01*
X-5588000Y-1936000D01*
X-5594000Y-1951000D01*
X-5595500Y-1964500D01*
X-5592500Y-1978000D01*
X-5588000Y-1987000D01*
X-5579000Y-1996000D01*
X-5568500Y-2002000D01*
X-5558000Y-2005000D01*
X-5547500D01*
X-5537000Y-2002000D01*
X-5528000Y-1997500D01*
X-5520500Y-1991500D01*
G01X-5458000Y-1915000D02*
Y-2005000D01*
G01X-5492500Y-1915000D02*
X-5423500D01*
G01X-5376000D02*
X-5340000D01*
G01X-5358000D02*
Y-2005000D01*
G01X-5376000D02*
X-5340000D01*
G01X-5258000D02*
X-5270000Y-2003500D01*
X-5280500Y-1997500D01*
X-5289500Y-1988500D01*
X-5295500Y-1978000D01*
X-5298500Y-1966000D01*
Y-1954000D01*
X-5295500Y-1942000D01*
X-5289500Y-1931500D01*
X-5280500Y-1922500D01*
X-5270000Y-1916500D01*
X-5258000Y-1915000D01*
X-5246000Y-1916500D01*
X-5235500Y-1922500D01*
X-5226500Y-1931500D01*
X-5220500Y-1942000D01*
X-5217500Y-1954000D01*
Y-1966000D01*
X-5220500Y-1978000D01*
X-5226500Y-1988500D01*
X-5235500Y-1997500D01*
X-5246000Y-2003500D01*
X-5258000Y-2005000D01*
G01X-5192500D02*
Y-1915000D01*
X-5123500Y-2005000D01*
Y-1915000D01*
G01X-4925000Y-1922500D02*
X-4934000Y-1918000D01*
X-4944500Y-1915000D01*
X-4956500D01*
X-4970000Y-1919500D01*
X-4980500Y-1927000D01*
X-4988000Y-1936000D01*
X-4994000Y-1951000D01*
X-4995500Y-1964500D01*
X-4992500Y-1978000D01*
X-4988000Y-1987000D01*
X-4979000Y-1996000D01*
X-4968500Y-2002000D01*
X-4958000Y-2005000D01*
X-4947500D01*
X-4937000Y-2002000D01*
X-4928000Y-1997500D01*
X-4920500Y-1991500D01*
G01X-4889500Y-2005000D02*
Y-1915000D01*
G01X-4826500D02*
Y-2005000D01*
G01Y-1960000D02*
X-4889500D01*
G01X-4795500Y-2005000D02*
X-4758000Y-1915000D01*
X-4720500Y-2005000D01*
G01X-4734000Y-1973500D02*
X-4782000D01*
G01X-4688000Y-2005000D02*
Y-1915000D01*
X-4650500D01*
X-4638500Y-1919500D01*
X-4631000Y-1925500D01*
X-4628000Y-1937500D01*
X-4631000Y-1949500D01*
X-4640000Y-1957000D01*
X-4650500Y-1961500D01*
X-4688000D01*
G01X-4650500D02*
X-4628000Y-2005000D01*
G01X-4558000Y-1915000D02*
Y-2005000D01*
G01X-4592500Y-1915000D02*
X-4523500D01*
G01X-7153000Y-2035000D02*
X-7063000D01*
G01X-7053000D02*
X-6963000D01*
G01X-6953000D02*
X-6863000D01*
G01X-6853000D02*
X-6763000D01*
G01X-6753000D02*
X-6663000D01*
G01X-6653000D02*
X-6563000D01*
G01X-6553000D02*
X-6463000D01*
G01X-6453000D02*
X-6363000D01*
G01X-6353000D02*
X-6263000D01*
G01X-6253000D02*
X-6163000D01*
G01X-6153000D02*
X-6063000D01*
G01X-6053000D02*
X-5963000D01*
G01X-5953000D02*
X-5863000D01*
G01X-5853000D02*
X-5763000D01*
G01X-5753000D02*
X-5663000D01*
G01X-5653000D02*
X-5563000D01*
G01X-5553000D02*
X-5463000D01*
G01X-5453000D02*
X-5363000D01*
G01X-5353000D02*
X-5263000D01*
G01X-5253000D02*
X-5163000D01*
G01X-5153000D02*
X-5063000D01*
G01X-5053000D02*
X-4963000D01*
G01X-4953000D02*
X-4863000D01*
G01X-4853000D02*
X-4763000D01*
G01X-4753000D02*
X-4663000D01*
G01X-4653000D02*
X-4563000D01*
G01X-4553000D02*
X-4463000D01*
G01X-7058000Y-2077000D02*
Y-2167000D01*
G01X-7092500Y-2077000D02*
X-7023500D01*
G01X-6958000Y-2167000D02*
X-6970000Y-2165500D01*
X-6980500Y-2159500D01*
X-6989500Y-2150500D01*
X-6995500Y-2140000D01*
X-6998500Y-2128000D01*
Y-2116000D01*
X-6995500Y-2104000D01*
X-6989500Y-2093500D01*
X-6980500Y-2084500D01*
X-6970000Y-2078500D01*
X-6958000Y-2077000D01*
X-6946000Y-2078500D01*
X-6935500Y-2084500D01*
X-6926500Y-2093500D01*
X-6920500Y-2104000D01*
X-6917500Y-2116000D01*
Y-2128000D01*
X-6920500Y-2140000D01*
X-6926500Y-2150500D01*
X-6935500Y-2159500D01*
X-6946000Y-2165500D01*
X-6958000Y-2167000D01*
G01X-6858000Y-2077000D02*
Y-2167000D01*
G01X-6892500Y-2077000D02*
X-6823500D01*
G01X-6795500Y-2167000D02*
X-6758000Y-2077000D01*
X-6720500Y-2167000D01*
G01X-6734000Y-2135500D02*
X-6782000D01*
G01X-6688000Y-2077000D02*
Y-2167000D01*
X-6628000D01*
G01X-6458000Y-2077000D02*
Y-2167000D01*
G01X-6492500Y-2077000D02*
X-6423500D01*
G01X-6389500Y-2167000D02*
Y-2077000D01*
G01X-6326500D02*
Y-2167000D01*
G01Y-2122000D02*
X-6389500D01*
G01X-6276000Y-2077000D02*
X-6240000D01*
G01X-6258000D02*
Y-2167000D01*
G01X-6276000D02*
X-6240000D01*
G01X-6125000Y-2084500D02*
X-6134000Y-2080000D01*
X-6144500Y-2077000D01*
X-6156500D01*
X-6170000Y-2081500D01*
X-6180500Y-2089000D01*
X-6188000Y-2098000D01*
X-6194000Y-2113000D01*
X-6195500Y-2126500D01*
X-6192500Y-2140000D01*
X-6188000Y-2149000D01*
X-6179000Y-2158000D01*
X-6168500Y-2164000D01*
X-6158000Y-2167000D01*
X-6147500D01*
X-6137000Y-2164000D01*
X-6128000Y-2159500D01*
X-6120500Y-2153500D01*
G01X-6091000Y-2167000D02*
Y-2077000D01*
G01X-6034000D02*
X-6091000Y-2132500D01*
G01X-6025000Y-2167000D02*
X-6065500Y-2107000D01*
G01X-5992500Y-2167000D02*
Y-2077000D01*
X-5923500Y-2167000D01*
Y-2077000D01*
G01X-5828000Y-2167000D02*
X-5888000D01*
Y-2077000D01*
X-5828000D01*
G01X-5852000Y-2120500D02*
X-5888000D01*
G01X-5789500Y-2155000D02*
X-5777500Y-2162500D01*
X-5764000Y-2167000D01*
X-5752000D01*
X-5740000Y-2162500D01*
X-5731000Y-2155000D01*
X-5726500Y-2144500D01*
X-5729500Y-2134000D01*
X-5737000Y-2125000D01*
X-5750500Y-2119000D01*
X-5768500Y-2116000D01*
X-5779000Y-2110000D01*
X-5783500Y-2099500D01*
X-5780500Y-2089000D01*
X-5773000Y-2081500D01*
X-5762500Y-2077000D01*
X-5752000D01*
X-5741500Y-2080000D01*
X-5732500Y-2087500D01*
G01X-5689500Y-2155000D02*
X-5677500Y-2162500D01*
X-5664000Y-2167000D01*
X-5652000D01*
X-5640000Y-2162500D01*
X-5631000Y-2155000D01*
X-5626500Y-2144500D01*
X-5629500Y-2134000D01*
X-5637000Y-2125000D01*
X-5650500Y-2119000D01*
X-5668500Y-2116000D01*
X-5679000Y-2110000D01*
X-5683500Y-2099500D01*
X-5680500Y-2089000D01*
X-5673000Y-2081500D01*
X-5662500Y-2077000D01*
X-5652000D01*
X-5641500Y-2080000D01*
X-5632500Y-2087500D01*
G01X-5458000Y-2077000D02*
X-5470000Y-2080000D01*
X-5479000Y-2087500D01*
X-5485000Y-2096500D01*
X-5489500Y-2108500D01*
X-5491000Y-2122000D01*
X-5489500Y-2135500D01*
X-5485000Y-2147500D01*
X-5479000Y-2156500D01*
X-5470000Y-2164000D01*
X-5458000Y-2167000D01*
X-5446000Y-2164000D01*
X-5437000Y-2156500D01*
X-5431000Y-2147500D01*
X-5426500Y-2135500D01*
X-5425000Y-2122000D01*
X-5426500Y-2108500D01*
X-5431000Y-2096500D01*
X-5437000Y-2087500D01*
X-5446000Y-2080000D01*
X-5458000Y-2077000D01*
G01X-5358000Y-2170000D02*
X-5361000Y-2168500D01*
Y-2165500D01*
X-5358000Y-2164000D01*
X-5355000Y-2165500D01*
Y-2168500D01*
X-5358000Y-2170000D01*
G01X-5286500Y-2092000D02*
X-5277500Y-2083000D01*
X-5267000Y-2078500D01*
X-5255000Y-2077000D01*
X-5240000Y-2080000D01*
X-5229500Y-2087500D01*
X-5226500Y-2096500D01*
X-5228000Y-2105500D01*
X-5234000Y-2113000D01*
X-5264000Y-2128000D01*
X-5277500Y-2138500D01*
X-5286500Y-2153500D01*
X-5289500Y-2167000D01*
X-5226500D01*
G01X-5186500Y-2129500D02*
X-5176000Y-2119000D01*
X-5167000Y-2113000D01*
X-5155000Y-2110000D01*
X-5144500Y-2113000D01*
X-5137000Y-2119000D01*
X-5131000Y-2128000D01*
X-5129500Y-2138500D01*
X-5131000Y-2147500D01*
X-5137000Y-2156500D01*
X-5146000Y-2164000D01*
X-5156500Y-2167000D01*
X-5168500Y-2164000D01*
X-5179000Y-2155000D01*
X-5185000Y-2141500D01*
X-5186500Y-2126500D01*
X-5183500Y-2107000D01*
X-5179000Y-2096500D01*
X-5171500Y-2086000D01*
X-5161000Y-2078500D01*
X-5150500Y-2077000D01*
X-5140000Y-2080000D01*
X-5132500Y-2087500D01*
G01X-5040000Y-2167000D02*
Y-2077000D01*
X-5095500Y-2141500D01*
X-5020500D01*
G01X-4958000Y-2167000D02*
Y-2077000D01*
X-4976000Y-2095000D01*
G01Y-2167000D02*
X-4940000D01*
G01X-4886500Y-2129500D02*
X-4876000Y-2119000D01*
X-4867000Y-2113000D01*
X-4855000Y-2110000D01*
X-4844500Y-2113000D01*
X-4837000Y-2119000D01*
X-4831000Y-2128000D01*
X-4829500Y-2138500D01*
X-4831000Y-2147500D01*
X-4837000Y-2156500D01*
X-4846000Y-2164000D01*
X-4856500Y-2167000D01*
X-4868500Y-2164000D01*
X-4879000Y-2155000D01*
X-4885000Y-2141500D01*
X-4886500Y-2126500D01*
X-4883500Y-2107000D01*
X-4879000Y-2096500D01*
X-4871500Y-2086000D01*
X-4861000Y-2078500D01*
X-4850500Y-2077000D01*
X-4840000Y-2080000D01*
X-4832500Y-2087500D01*
G01X-4697000Y-2167000D02*
Y-2077000D01*
X-4658000Y-2152000D01*
X-4619000Y-2077000D01*
Y-2167000D01*
G01X-4597000D02*
Y-2077000D01*
X-4558000Y-2152000D01*
X-4519000Y-2077000D01*
Y-2167000D01*
G01X-5871500Y3536860D02*
X-5961500D01*
X-5943500Y3518860D01*
G01X-5871500D02*
Y3554860D01*
G01X-5901500Y3617360D02*
Y3656360D01*
G01X-5946500Y3708360D02*
X-5955500Y3717360D01*
X-5960000Y3727860D01*
X-5961500Y3739860D01*
X-5958500Y3754860D01*
X-5951000Y3765360D01*
X-5942000Y3768360D01*
X-5933000Y3766860D01*
X-5925500Y3760860D01*
X-5910500Y3730860D01*
X-5900000Y3717360D01*
X-5885000Y3708360D01*
X-5871500Y3705360D01*
Y3768360D01*
G01X-4734000Y-1793000D02*
X-4668000Y-1727000D01*
G01X-4701000Y-1715000D02*
Y-1805000D01*
G01X-4668000Y-1793000D02*
X-4734000Y-1727000D01*
G01X-4746000Y-1760000D02*
X-4656000D01*
G01X-4432500Y-1778000D02*
X-4420500Y-1785500D01*
X-4407000Y-1790000D01*
X-4395000D01*
X-4383000Y-1785500D01*
X-4374000Y-1778000D01*
X-4369500Y-1767500D01*
X-4372500Y-1757000D01*
X-4380000Y-1748000D01*
X-4393500Y-1742000D01*
X-4411500Y-1739000D01*
X-4422000Y-1733000D01*
X-4426500Y-1722500D01*
X-4423500Y-1712000D01*
X-4416000Y-1704500D01*
X-4405500Y-1700000D01*
X-4395000D01*
X-4384500Y-1703000D01*
X-4375500Y-1710500D01*
G01X-4334000Y-1700000D02*
Y-1764500D01*
X-4328000Y-1778000D01*
X-4316000Y-1787000D01*
X-4301000Y-1790000D01*
X-4286000Y-1787000D01*
X-4274000Y-1778000D01*
X-4268000Y-1764500D01*
Y-1700000D01*
G01X-4231000Y-1790000D02*
Y-1700000D01*
X-4193500D01*
X-4181500Y-1704500D01*
X-4174000Y-1710500D01*
X-4171000Y-1722500D01*
X-4174000Y-1734500D01*
X-4183000Y-1742000D01*
X-4193500Y-1746500D01*
X-4231000D01*
G01X-4193500D02*
X-4171000Y-1790000D01*
G01X-4129500D02*
Y-1700000D01*
X-4072500D01*
G01X-4093500Y-1743500D02*
X-4129500D01*
G01X-4038500Y-1790000D02*
X-4001000Y-1700000D01*
X-3963500Y-1790000D01*
G01X-3977000Y-1758500D02*
X-4025000D01*
G01X-3868000Y-1707500D02*
X-3877000Y-1703000D01*
X-3887500Y-1700000D01*
X-3899500D01*
X-3913000Y-1704500D01*
X-3923500Y-1712000D01*
X-3931000Y-1721000D01*
X-3937000Y-1736000D01*
X-3938500Y-1749500D01*
X-3935500Y-1763000D01*
X-3931000Y-1772000D01*
X-3922000Y-1781000D01*
X-3911500Y-1787000D01*
X-3901000Y-1790000D01*
X-3890500D01*
X-3880000Y-1787000D01*
X-3871000Y-1782500D01*
X-3863500Y-1776500D01*
G01X-3771000Y-1790000D02*
X-3831000D01*
Y-1700000D01*
X-3771000D01*
G01X-3795000Y-1743500D02*
X-3831000D01*
G01X-3620500Y-1760000D02*
X-3581500D01*
G01X-3438500Y-1790000D02*
X-3401000Y-1700000D01*
X-3363500Y-1790000D01*
G01X-3377000Y-1758500D02*
X-3425000D01*
G01X-3319000Y-1700000D02*
X-3283000D01*
G01X-3301000D02*
Y-1790000D01*
G01X-3319000D02*
X-3283000D01*
G01X-3231000D02*
Y-1700000D01*
X-3193500D01*
X-3181500Y-1704500D01*
X-3174000Y-1710500D01*
X-3171000Y-1722500D01*
X-3174000Y-1734500D01*
X-3183000Y-1742000D01*
X-3193500Y-1746500D01*
X-3231000D01*
G01X-3193500D02*
X-3171000Y-1790000D01*
G01X-3001000Y-1700000D02*
X-3013000Y-1703000D01*
X-3022000Y-1710500D01*
X-3028000Y-1719500D01*
X-3032500Y-1731500D01*
X-3034000Y-1745000D01*
X-3032500Y-1758500D01*
X-3028000Y-1770500D01*
X-3022000Y-1779500D01*
X-3013000Y-1787000D01*
X-3001000Y-1790000D01*
X-2989000Y-1787000D01*
X-2980000Y-1779500D01*
X-2974000Y-1770500D01*
X-2969500Y-1758500D01*
X-2968000Y-1745000D01*
X-2969500Y-1731500D01*
X-2974000Y-1719500D01*
X-2980000Y-1710500D01*
X-2989000Y-1703000D01*
X-3001000Y-1700000D01*
G01X-2840000Y-1790000D02*
Y-1700000D01*
X-2801000Y-1775000D01*
X-2762000Y-1700000D01*
Y-1790000D01*
G01X-2740000D02*
Y-1700000D01*
X-2701000Y-1775000D01*
X-2662000Y-1700000D01*
Y-1790000D01*
G01X-4931000Y-1287390D02*
Y-1377390D01*
X-4871000D01*
G01X-4829500Y-1302390D02*
X-4820500Y-1293390D01*
X-4810000Y-1288890D01*
X-4798000Y-1287390D01*
X-4783000Y-1290390D01*
X-4772500Y-1297890D01*
X-4769500Y-1306890D01*
X-4771000Y-1315890D01*
X-4777000Y-1323390D01*
X-4807000Y-1338390D01*
X-4820500Y-1348890D01*
X-4829500Y-1363890D01*
X-4832500Y-1377390D01*
X-4769500D01*
G01X-4589000Y-1329390D02*
X-4583000Y-1324890D01*
X-4578500Y-1317390D01*
X-4575500Y-1306890D01*
X-4578500Y-1297890D01*
X-4584500Y-1291890D01*
X-4595000Y-1287390D01*
X-4635500D01*
Y-1377390D01*
X-4586000D01*
X-4575500Y-1371390D01*
X-4569500Y-1362390D01*
X-4566500Y-1351890D01*
X-4569500Y-1341390D01*
X-4578500Y-1332390D01*
X-4589000Y-1329390D01*
X-4635500D01*
G01X-4501000Y-1377390D02*
X-4513000Y-1375890D01*
X-4523500Y-1369890D01*
X-4532500Y-1360890D01*
X-4538500Y-1350390D01*
X-4541500Y-1338390D01*
Y-1326390D01*
X-4538500Y-1314390D01*
X-4532500Y-1303890D01*
X-4523500Y-1294890D01*
X-4513000Y-1288890D01*
X-4501000Y-1287390D01*
X-4489000Y-1288890D01*
X-4478500Y-1294890D01*
X-4469500Y-1303890D01*
X-4463500Y-1314390D01*
X-4460500Y-1326390D01*
Y-1338390D01*
X-4463500Y-1350390D01*
X-4469500Y-1360890D01*
X-4478500Y-1369890D01*
X-4489000Y-1375890D01*
X-4501000Y-1377390D01*
G01X-4401000Y-1287390D02*
Y-1377390D01*
G01X-4435500Y-1287390D02*
X-4366500D01*
G01X-4301000D02*
Y-1377390D01*
G01X-4335500Y-1287390D02*
X-4266500D01*
G01X-4201000Y-1377390D02*
X-4213000Y-1375890D01*
X-4223500Y-1369890D01*
X-4232500Y-1360890D01*
X-4238500Y-1350390D01*
X-4241500Y-1338390D01*
Y-1326390D01*
X-4238500Y-1314390D01*
X-4232500Y-1303890D01*
X-4223500Y-1294890D01*
X-4213000Y-1288890D01*
X-4201000Y-1287390D01*
X-4189000Y-1288890D01*
X-4178500Y-1294890D01*
X-4169500Y-1303890D01*
X-4163500Y-1314390D01*
X-4160500Y-1326390D01*
Y-1338390D01*
X-4163500Y-1350390D01*
X-4169500Y-1360890D01*
X-4178500Y-1369890D01*
X-4189000Y-1375890D01*
X-4201000Y-1377390D01*
G01X-4140000D02*
Y-1287390D01*
X-4101000Y-1362390D01*
X-4062000Y-1287390D01*
Y-1377390D01*
G01X-3868000Y-1294890D02*
X-3877000Y-1290390D01*
X-3887500Y-1287390D01*
X-3899500D01*
X-3913000Y-1291890D01*
X-3923500Y-1299390D01*
X-3931000Y-1308390D01*
X-3937000Y-1323390D01*
X-3938500Y-1336890D01*
X-3935500Y-1350390D01*
X-3931000Y-1359390D01*
X-3922000Y-1368390D01*
X-3911500Y-1374390D01*
X-3901000Y-1377390D01*
X-3890500D01*
X-3880000Y-1374390D01*
X-3871000Y-1369890D01*
X-3863500Y-1363890D01*
G01X-3801000Y-1377390D02*
X-3813000Y-1375890D01*
X-3823500Y-1369890D01*
X-3832500Y-1360890D01*
X-3838500Y-1350390D01*
X-3841500Y-1338390D01*
Y-1326390D01*
X-3838500Y-1314390D01*
X-3832500Y-1303890D01*
X-3823500Y-1294890D01*
X-3813000Y-1288890D01*
X-3801000Y-1287390D01*
X-3789000Y-1288890D01*
X-3778500Y-1294890D01*
X-3769500Y-1303890D01*
X-3763500Y-1314390D01*
X-3760500Y-1326390D01*
Y-1338390D01*
X-3763500Y-1350390D01*
X-3769500Y-1360890D01*
X-3778500Y-1369890D01*
X-3789000Y-1375890D01*
X-3801000Y-1377390D01*
G01X-3735500D02*
Y-1287390D01*
X-3666500Y-1377390D01*
Y-1287390D01*
G01X-3634000Y-1377390D02*
Y-1287390D01*
X-3604000D01*
X-3592000Y-1291890D01*
X-3583000Y-1297890D01*
X-3575500Y-1306890D01*
X-3569500Y-1317390D01*
X-3568000Y-1332390D01*
X-3569500Y-1347390D01*
X-3575500Y-1357890D01*
X-3583000Y-1366890D01*
X-3592000Y-1372890D01*
X-3604000Y-1377390D01*
X-3634000D01*
G01X-3534000Y-1287390D02*
Y-1351890D01*
X-3528000Y-1365390D01*
X-3516000Y-1374390D01*
X-3501000Y-1377390D01*
X-3486000Y-1374390D01*
X-3474000Y-1365390D01*
X-3468000Y-1351890D01*
Y-1287390D01*
G01X-3368000Y-1294890D02*
X-3377000Y-1290390D01*
X-3387500Y-1287390D01*
X-3399500D01*
X-3413000Y-1291890D01*
X-3423500Y-1299390D01*
X-3431000Y-1308390D01*
X-3437000Y-1323390D01*
X-3438500Y-1336890D01*
X-3435500Y-1350390D01*
X-3431000Y-1359390D01*
X-3422000Y-1368390D01*
X-3411500Y-1374390D01*
X-3401000Y-1377390D01*
X-3390500D01*
X-3380000Y-1374390D01*
X-3371000Y-1369890D01*
X-3363500Y-1363890D01*
G01X-3301000Y-1287390D02*
Y-1377390D01*
G01X-3335500Y-1287390D02*
X-3266500D01*
G01X-3201000Y-1377390D02*
X-3213000Y-1375890D01*
X-3223500Y-1369890D01*
X-3232500Y-1360890D01*
X-3238500Y-1350390D01*
X-3241500Y-1338390D01*
Y-1326390D01*
X-3238500Y-1314390D01*
X-3232500Y-1303890D01*
X-3223500Y-1294890D01*
X-3213000Y-1288890D01*
X-3201000Y-1287390D01*
X-3189000Y-1288890D01*
X-3178500Y-1294890D01*
X-3169500Y-1303890D01*
X-3163500Y-1314390D01*
X-3160500Y-1326390D01*
Y-1338390D01*
X-3163500Y-1350390D01*
X-3169500Y-1360890D01*
X-3178500Y-1369890D01*
X-3189000Y-1375890D01*
X-3201000Y-1377390D01*
G01X-3131000D02*
Y-1287390D01*
X-3093500D01*
X-3081500Y-1291890D01*
X-3074000Y-1297890D01*
X-3071000Y-1309890D01*
X-3074000Y-1321890D01*
X-3083000Y-1329390D01*
X-3093500Y-1333890D01*
X-3131000D01*
G01X-3093500D02*
X-3071000Y-1377390D01*
G01X-2920500Y-1347390D02*
X-2881500D01*
G01X-2668000Y-1294890D02*
X-2677000Y-1290390D01*
X-2687500Y-1287390D01*
X-2699500D01*
X-2713000Y-1291890D01*
X-2723500Y-1299390D01*
X-2731000Y-1308390D01*
X-2737000Y-1323390D01*
X-2738500Y-1336890D01*
X-2735500Y-1350390D01*
X-2731000Y-1359390D01*
X-2722000Y-1368390D01*
X-2711500Y-1374390D01*
X-2701000Y-1377390D01*
X-2690500D01*
X-2680000Y-1374390D01*
X-2671000Y-1369890D01*
X-2663500Y-1363890D01*
G01X-2601000Y-1377390D02*
X-2613000Y-1375890D01*
X-2623500Y-1369890D01*
X-2632500Y-1360890D01*
X-2638500Y-1350390D01*
X-2641500Y-1338390D01*
Y-1326390D01*
X-2638500Y-1314390D01*
X-2632500Y-1303890D01*
X-2623500Y-1294890D01*
X-2613000Y-1288890D01*
X-2601000Y-1287390D01*
X-2589000Y-1288890D01*
X-2578500Y-1294890D01*
X-2569500Y-1303890D01*
X-2563500Y-1314390D01*
X-2560500Y-1326390D01*
Y-1338390D01*
X-2563500Y-1350390D01*
X-2569500Y-1360890D01*
X-2578500Y-1369890D01*
X-2589000Y-1375890D01*
X-2601000Y-1377390D01*
G01X-2531000D02*
Y-1287390D01*
X-2495000D01*
X-2483000Y-1291890D01*
X-2474000Y-1302390D01*
X-2471000Y-1314390D01*
X-2474000Y-1326390D01*
X-2481500Y-1335390D01*
X-2495000Y-1339890D01*
X-2531000D01*
G01X-2431000Y-1377390D02*
Y-1287390D01*
X-2395000D01*
X-2383000Y-1291890D01*
X-2374000Y-1302390D01*
X-2371000Y-1314390D01*
X-2374000Y-1326390D01*
X-2381500Y-1335390D01*
X-2395000Y-1339890D01*
X-2431000D01*
G01X-2271000Y-1377390D02*
X-2331000D01*
Y-1287390D01*
X-2271000D01*
G01X-2295000Y-1330890D02*
X-2331000D01*
G01X-2231000Y-1377390D02*
Y-1287390D01*
X-2193500D01*
X-2181500Y-1291890D01*
X-2174000Y-1297890D01*
X-2171000Y-1309890D01*
X-2174000Y-1321890D01*
X-2183000Y-1329390D01*
X-2193500Y-1333890D01*
X-2231000D01*
G01X-2193500D02*
X-2171000Y-1377390D01*
G01X-2001000Y-1287390D02*
X-2013000Y-1290390D01*
X-2022000Y-1297890D01*
X-2028000Y-1306890D01*
X-2032500Y-1318890D01*
X-2034000Y-1332390D01*
X-2032500Y-1345890D01*
X-2028000Y-1357890D01*
X-2022000Y-1366890D01*
X-2013000Y-1374390D01*
X-2001000Y-1377390D01*
X-1989000Y-1374390D01*
X-1980000Y-1366890D01*
X-1974000Y-1357890D01*
X-1969500Y-1345890D01*
X-1968000Y-1332390D01*
X-1969500Y-1318890D01*
X-1974000Y-1306890D01*
X-1980000Y-1297890D01*
X-1989000Y-1290390D01*
X-2001000Y-1287390D01*
G01X-1901000Y-1380390D02*
X-1904000Y-1378890D01*
Y-1375890D01*
X-1901000Y-1374390D01*
X-1898000Y-1375890D01*
Y-1378890D01*
X-1901000Y-1380390D01*
G01X-1801000Y-1287390D02*
X-1813000Y-1290390D01*
X-1822000Y-1297890D01*
X-1828000Y-1306890D01*
X-1832500Y-1318890D01*
X-1834000Y-1332390D01*
X-1832500Y-1345890D01*
X-1828000Y-1357890D01*
X-1822000Y-1366890D01*
X-1813000Y-1374390D01*
X-1801000Y-1377390D01*
X-1789000Y-1374390D01*
X-1780000Y-1366890D01*
X-1774000Y-1357890D01*
X-1769500Y-1345890D01*
X-1768000Y-1332390D01*
X-1769500Y-1318890D01*
X-1774000Y-1306890D01*
X-1780000Y-1297890D01*
X-1789000Y-1290390D01*
X-1801000Y-1287390D01*
G01X-1734000Y-1359390D02*
X-1725000Y-1369890D01*
X-1713000Y-1375890D01*
X-1699500Y-1377390D01*
X-1687500Y-1375890D01*
X-1675500Y-1368390D01*
X-1668000Y-1359390D01*
X-1666500Y-1350390D01*
X-1669500Y-1339890D01*
X-1680000Y-1332390D01*
X-1690500Y-1329390D01*
X-1704000D01*
G01X-1690500D02*
X-1681500Y-1324890D01*
X-1674000Y-1317390D01*
X-1671000Y-1308390D01*
X-1674000Y-1299390D01*
X-1681500Y-1291890D01*
X-1695000Y-1287390D01*
X-1708500Y-1288890D01*
X-1722000Y-1294890D01*
G01X-1601000Y-1287390D02*
X-1613000Y-1290390D01*
X-1622000Y-1297890D01*
X-1628000Y-1306890D01*
X-1632500Y-1318890D01*
X-1634000Y-1332390D01*
X-1632500Y-1345890D01*
X-1628000Y-1357890D01*
X-1622000Y-1366890D01*
X-1613000Y-1374390D01*
X-1601000Y-1377390D01*
X-1589000Y-1374390D01*
X-1580000Y-1366890D01*
X-1574000Y-1357890D01*
X-1569500Y-1345890D01*
X-1568000Y-1332390D01*
X-1569500Y-1318890D01*
X-1574000Y-1306890D01*
X-1580000Y-1297890D01*
X-1589000Y-1290390D01*
X-1601000Y-1287390D01*
G01X-1483000Y-1377390D02*
Y-1287390D01*
X-1538500Y-1351890D01*
X-1463500D01*
G01X-1401000Y-1377390D02*
X-1390500Y-1375890D01*
X-1378500Y-1371390D01*
X-1371000Y-1363890D01*
X-1368000Y-1353390D01*
X-1371000Y-1342890D01*
X-1380000Y-1333890D01*
X-1393500Y-1329390D01*
X-1408500D01*
X-1417500Y-1326390D01*
X-1425000Y-1318890D01*
X-1428000Y-1308390D01*
X-1423500Y-1297890D01*
X-1413000Y-1290390D01*
X-1401000Y-1287390D01*
X-1389000Y-1290390D01*
X-1378500Y-1297890D01*
X-1374000Y-1308390D01*
X-1377000Y-1318890D01*
X-1384500Y-1326390D01*
X-1393500Y-1329390D01*
X-1408500D01*
X-1422000Y-1333890D01*
X-1431000Y-1342890D01*
X-1434000Y-1353390D01*
X-1431000Y-1363890D01*
X-1423500Y-1371390D01*
X-1411500Y-1375890D01*
X-1401000Y-1377390D01*
G01X-1240000D02*
Y-1287390D01*
X-1201000Y-1362390D01*
X-1162000Y-1287390D01*
Y-1377390D01*
G01X-1140000D02*
Y-1287390D01*
X-1101000Y-1362390D01*
X-1062000Y-1287390D01*
Y-1377390D01*
G01X-4734000Y862930D02*
X-4668000Y928930D01*
G01X-4701000Y940930D02*
Y850930D01*
G01X-4668000Y862930D02*
X-4734000Y928930D01*
G01X-4746000Y895930D02*
X-4656000D01*
G01X-4434000Y865930D02*
Y955930D01*
X-4404000D01*
X-4392000Y951430D01*
X-4383000Y945430D01*
X-4375500Y936430D01*
X-4369500Y925930D01*
X-4368000Y910930D01*
X-4369500Y895930D01*
X-4375500Y885430D01*
X-4383000Y876430D01*
X-4392000Y870430D01*
X-4404000Y865930D01*
X-4434000D01*
G01X-4319000Y955930D02*
X-4283000D01*
G01X-4301000D02*
Y865930D01*
G01X-4319000D02*
X-4283000D01*
G01X-4171000D02*
X-4231000D01*
Y955930D01*
X-4171000D01*
G01X-4195000Y912430D02*
X-4231000D01*
G01X-4131000Y955930D02*
Y865930D01*
X-4071000D01*
G01X-3971000D02*
X-4031000D01*
Y955930D01*
X-3971000D01*
G01X-3995000Y912430D02*
X-4031000D01*
G01X-3868000Y948430D02*
X-3877000Y952930D01*
X-3887500Y955930D01*
X-3899500D01*
X-3913000Y951430D01*
X-3923500Y943930D01*
X-3931000Y934930D01*
X-3937000Y919930D01*
X-3938500Y906430D01*
X-3935500Y892930D01*
X-3931000Y883930D01*
X-3922000Y874930D01*
X-3911500Y868930D01*
X-3901000Y865930D01*
X-3890500D01*
X-3880000Y868930D01*
X-3871000Y873430D01*
X-3863500Y879430D01*
G01X-3801000Y955930D02*
Y865930D01*
G01X-3835500Y955930D02*
X-3766500D01*
G01X-3731000Y865930D02*
Y955930D01*
X-3693500D01*
X-3681500Y951430D01*
X-3674000Y945430D01*
X-3671000Y933430D01*
X-3674000Y921430D01*
X-3683000Y913930D01*
X-3693500Y909430D01*
X-3731000D01*
G01X-3693500D02*
X-3671000Y865930D01*
G01X-3619000Y955930D02*
X-3583000D01*
G01X-3601000D02*
Y865930D01*
G01X-3619000D02*
X-3583000D01*
G01X-3468000Y948430D02*
X-3477000Y952930D01*
X-3487500Y955930D01*
X-3499500D01*
X-3513000Y951430D01*
X-3523500Y943930D01*
X-3531000Y934930D01*
X-3537000Y919930D01*
X-3538500Y906430D01*
X-3535500Y892930D01*
X-3531000Y883930D01*
X-3522000Y874930D01*
X-3511500Y868930D01*
X-3501000Y865930D01*
X-3490500D01*
X-3480000Y868930D01*
X-3471000Y873430D01*
X-3463500Y879430D01*
G01X-3320500Y895930D02*
X-3281500D01*
G01X-3129500Y865930D02*
Y955930D01*
X-3072500D01*
G01X-3093500Y912430D02*
X-3129500D01*
G01X-3031000Y865930D02*
Y955930D01*
X-2993500D01*
X-2981500Y951430D01*
X-2974000Y945430D01*
X-2971000Y933430D01*
X-2974000Y921430D01*
X-2983000Y913930D01*
X-2993500Y909430D01*
X-3031000D01*
G01X-2993500D02*
X-2971000Y865930D01*
G01X-2920500Y895930D02*
X-2881500D01*
G01X-2783000Y865930D02*
Y955930D01*
X-2838500Y891430D01*
X-2763500D01*
G01X-2601000Y955930D02*
X-2613000Y952930D01*
X-2622000Y945430D01*
X-2628000Y936430D01*
X-2632500Y924430D01*
X-2634000Y910930D01*
X-2632500Y897430D01*
X-2628000Y885430D01*
X-2622000Y876430D01*
X-2613000Y868930D01*
X-2601000Y865930D01*
X-2589000Y868930D01*
X-2580000Y876430D01*
X-2574000Y885430D01*
X-2569500Y897430D01*
X-2568000Y910930D01*
X-2569500Y924430D01*
X-2574000Y936430D01*
X-2580000Y945430D01*
X-2589000Y952930D01*
X-2601000Y955930D01*
G01X-2501000Y862930D02*
X-2504000Y864430D01*
Y867430D01*
X-2501000Y868930D01*
X-2498000Y867430D01*
Y864430D01*
X-2501000Y862930D01*
G01X-2429500Y940930D02*
X-2420500Y949930D01*
X-2410000Y954430D01*
X-2398000Y955930D01*
X-2383000Y952930D01*
X-2372500Y945430D01*
X-2369500Y936430D01*
X-2371000Y927430D01*
X-2377000Y919930D01*
X-2407000Y904930D01*
X-2420500Y894430D01*
X-2429500Y879430D01*
X-2432500Y865930D01*
X-2369500D01*
G01X-2301000Y955930D02*
X-2313000Y952930D01*
X-2322000Y945430D01*
X-2328000Y936430D01*
X-2332500Y924430D01*
X-2334000Y910930D01*
X-2332500Y897430D01*
X-2328000Y885430D01*
X-2322000Y876430D01*
X-2313000Y868930D01*
X-2301000Y865930D01*
X-2289000Y868930D01*
X-2280000Y876430D01*
X-2274000Y885430D01*
X-2269500Y897430D01*
X-2268000Y910930D01*
X-2269500Y924430D01*
X-2274000Y936430D01*
X-2280000Y945430D01*
X-2289000Y952930D01*
X-2301000Y955930D01*
G01X-2234000Y883930D02*
X-2225000Y873430D01*
X-2213000Y867430D01*
X-2199500Y865930D01*
X-2187500Y867430D01*
X-2175500Y874930D01*
X-2168000Y883930D01*
X-2166500Y892930D01*
X-2169500Y903430D01*
X-2180000Y910930D01*
X-2190500Y913930D01*
X-2204000D01*
G01X-2190500D02*
X-2181500Y918430D01*
X-2174000Y925930D01*
X-2171000Y934930D01*
X-2174000Y943930D01*
X-2181500Y951430D01*
X-2195000Y955930D01*
X-2208500Y954430D01*
X-2222000Y948430D01*
G01X-2129500Y940930D02*
X-2120500Y949930D01*
X-2110000Y954430D01*
X-2098000Y955930D01*
X-2083000Y952930D01*
X-2072500Y945430D01*
X-2069500Y936430D01*
X-2071000Y927430D01*
X-2077000Y919930D01*
X-2107000Y904930D01*
X-2120500Y894430D01*
X-2129500Y879430D01*
X-2132500Y865930D01*
X-2069500D01*
G01X-1940000D02*
Y955930D01*
X-1901000Y880930D01*
X-1862000Y955930D01*
Y865930D01*
G01X-1840000D02*
Y955930D01*
X-1801000Y880930D01*
X-1762000Y955930D01*
Y865930D01*
G01X-4734000Y3428860D02*
X-4668000Y3494860D01*
G01X-4701000Y3506860D02*
Y3416860D01*
G01X-4668000Y3428860D02*
X-4734000Y3494860D01*
G01X-4746000Y3461860D02*
X-4656000D01*
G01X-4432500Y3443860D02*
X-4420500Y3436360D01*
X-4407000Y3431860D01*
X-4395000D01*
X-4383000Y3436360D01*
X-4374000Y3443860D01*
X-4369500Y3454360D01*
X-4372500Y3464860D01*
X-4380000Y3473860D01*
X-4393500Y3479860D01*
X-4411500Y3482860D01*
X-4422000Y3488860D01*
X-4426500Y3499360D01*
X-4423500Y3509860D01*
X-4416000Y3517360D01*
X-4405500Y3521860D01*
X-4395000D01*
X-4384500Y3518860D01*
X-4375500Y3511360D01*
G01X-4334000Y3521860D02*
Y3457360D01*
X-4328000Y3443860D01*
X-4316000Y3434860D01*
X-4301000Y3431860D01*
X-4286000Y3434860D01*
X-4274000Y3443860D01*
X-4268000Y3457360D01*
Y3521860D01*
G01X-4231000Y3431860D02*
Y3521860D01*
X-4193500D01*
X-4181500Y3517360D01*
X-4174000Y3511360D01*
X-4171000Y3499360D01*
X-4174000Y3487360D01*
X-4183000Y3479860D01*
X-4193500Y3475360D01*
X-4231000D01*
G01X-4193500D02*
X-4171000Y3431860D01*
G01X-4129500D02*
Y3521860D01*
X-4072500D01*
G01X-4093500Y3478360D02*
X-4129500D01*
G01X-4038500Y3431860D02*
X-4001000Y3521860D01*
X-3963500Y3431860D01*
G01X-3977000Y3463360D02*
X-4025000D01*
G01X-3868000Y3514360D02*
X-3877000Y3518860D01*
X-3887500Y3521860D01*
X-3899500D01*
X-3913000Y3517360D01*
X-3923500Y3509860D01*
X-3931000Y3500860D01*
X-3937000Y3485860D01*
X-3938500Y3472360D01*
X-3935500Y3458860D01*
X-3931000Y3449860D01*
X-3922000Y3440860D01*
X-3911500Y3434860D01*
X-3901000Y3431860D01*
X-3890500D01*
X-3880000Y3434860D01*
X-3871000Y3439360D01*
X-3863500Y3445360D01*
G01X-3771000Y3431860D02*
X-3831000D01*
Y3521860D01*
X-3771000D01*
G01X-3795000Y3478360D02*
X-3831000D01*
G01X-3620500Y3461860D02*
X-3581500D01*
G01X-3438500Y3431860D02*
X-3401000Y3521860D01*
X-3363500Y3431860D01*
G01X-3377000Y3463360D02*
X-3425000D01*
G01X-3319000Y3521860D02*
X-3283000D01*
G01X-3301000D02*
Y3431860D01*
G01X-3319000D02*
X-3283000D01*
G01X-3231000D02*
Y3521860D01*
X-3193500D01*
X-3181500Y3517360D01*
X-3174000Y3511360D01*
X-3171000Y3499360D01*
X-3174000Y3487360D01*
X-3183000Y3479860D01*
X-3193500Y3475360D01*
X-3231000D01*
G01X-3193500D02*
X-3171000Y3431860D01*
G01X-3001000Y3521860D02*
X-3013000Y3518860D01*
X-3022000Y3511360D01*
X-3028000Y3502360D01*
X-3032500Y3490360D01*
X-3034000Y3476860D01*
X-3032500Y3463360D01*
X-3028000Y3451360D01*
X-3022000Y3442360D01*
X-3013000Y3434860D01*
X-3001000Y3431860D01*
X-2989000Y3434860D01*
X-2980000Y3442360D01*
X-2974000Y3451360D01*
X-2969500Y3463360D01*
X-2968000Y3476860D01*
X-2969500Y3490360D01*
X-2974000Y3502360D01*
X-2980000Y3511360D01*
X-2989000Y3518860D01*
X-3001000Y3521860D01*
G01X-2840000Y3431860D02*
Y3521860D01*
X-2801000Y3446860D01*
X-2762000Y3521860D01*
Y3431860D01*
G01X-2740000D02*
Y3521860D01*
X-2701000Y3446860D01*
X-2662000Y3521860D01*
Y3431860D01*
G01X-4931000Y3199260D02*
Y3109260D01*
X-4871000D01*
G01X-4801000D02*
Y3199260D01*
X-4819000Y3181260D01*
G01Y3109260D02*
X-4783000D01*
G01X-4601000Y3199260D02*
Y3109260D01*
G01X-4635500Y3199260D02*
X-4566500D01*
G01X-4501000Y3109260D02*
X-4513000Y3110760D01*
X-4523500Y3116760D01*
X-4532500Y3125760D01*
X-4538500Y3136260D01*
X-4541500Y3148260D01*
Y3160260D01*
X-4538500Y3172260D01*
X-4532500Y3182760D01*
X-4523500Y3191760D01*
X-4513000Y3197760D01*
X-4501000Y3199260D01*
X-4489000Y3197760D01*
X-4478500Y3191760D01*
X-4469500Y3182760D01*
X-4463500Y3172260D01*
X-4460500Y3160260D01*
Y3148260D01*
X-4463500Y3136260D01*
X-4469500Y3125760D01*
X-4478500Y3116760D01*
X-4489000Y3110760D01*
X-4501000Y3109260D01*
G01X-4431000D02*
Y3199260D01*
X-4395000D01*
X-4383000Y3194760D01*
X-4374000Y3184260D01*
X-4371000Y3172260D01*
X-4374000Y3160260D01*
X-4381500Y3151260D01*
X-4395000Y3146760D01*
X-4431000D01*
G01X-4168000Y3191760D02*
X-4177000Y3196260D01*
X-4187500Y3199260D01*
X-4199500D01*
X-4213000Y3194760D01*
X-4223500Y3187260D01*
X-4231000Y3178260D01*
X-4237000Y3163260D01*
X-4238500Y3149760D01*
X-4235500Y3136260D01*
X-4231000Y3127260D01*
X-4222000Y3118260D01*
X-4211500Y3112260D01*
X-4201000Y3109260D01*
X-4190500D01*
X-4180000Y3112260D01*
X-4171000Y3116760D01*
X-4163500Y3122760D01*
G01X-4101000Y3109260D02*
X-4113000Y3110760D01*
X-4123500Y3116760D01*
X-4132500Y3125760D01*
X-4138500Y3136260D01*
X-4141500Y3148260D01*
Y3160260D01*
X-4138500Y3172260D01*
X-4132500Y3182760D01*
X-4123500Y3191760D01*
X-4113000Y3197760D01*
X-4101000Y3199260D01*
X-4089000Y3197760D01*
X-4078500Y3191760D01*
X-4069500Y3182760D01*
X-4063500Y3172260D01*
X-4060500Y3160260D01*
Y3148260D01*
X-4063500Y3136260D01*
X-4069500Y3125760D01*
X-4078500Y3116760D01*
X-4089000Y3110760D01*
X-4101000Y3109260D01*
G01X-4035500D02*
Y3199260D01*
X-3966500Y3109260D01*
Y3199260D01*
G01X-3934000Y3109260D02*
Y3199260D01*
X-3904000D01*
X-3892000Y3194760D01*
X-3883000Y3188760D01*
X-3875500Y3179760D01*
X-3869500Y3169260D01*
X-3868000Y3154260D01*
X-3869500Y3139260D01*
X-3875500Y3128760D01*
X-3883000Y3119760D01*
X-3892000Y3113760D01*
X-3904000Y3109260D01*
X-3934000D01*
G01X-3834000Y3199260D02*
Y3134760D01*
X-3828000Y3121260D01*
X-3816000Y3112260D01*
X-3801000Y3109260D01*
X-3786000Y3112260D01*
X-3774000Y3121260D01*
X-3768000Y3134760D01*
Y3199260D01*
G01X-3668000Y3191760D02*
X-3677000Y3196260D01*
X-3687500Y3199260D01*
X-3699500D01*
X-3713000Y3194760D01*
X-3723500Y3187260D01*
X-3731000Y3178260D01*
X-3737000Y3163260D01*
X-3738500Y3149760D01*
X-3735500Y3136260D01*
X-3731000Y3127260D01*
X-3722000Y3118260D01*
X-3711500Y3112260D01*
X-3701000Y3109260D01*
X-3690500D01*
X-3680000Y3112260D01*
X-3671000Y3116760D01*
X-3663500Y3122760D01*
G01X-3601000Y3199260D02*
Y3109260D01*
G01X-3635500Y3199260D02*
X-3566500D01*
G01X-3501000Y3109260D02*
X-3513000Y3110760D01*
X-3523500Y3116760D01*
X-3532500Y3125760D01*
X-3538500Y3136260D01*
X-3541500Y3148260D01*
Y3160260D01*
X-3538500Y3172260D01*
X-3532500Y3182760D01*
X-3523500Y3191760D01*
X-3513000Y3197760D01*
X-3501000Y3199260D01*
X-3489000Y3197760D01*
X-3478500Y3191760D01*
X-3469500Y3182760D01*
X-3463500Y3172260D01*
X-3460500Y3160260D01*
Y3148260D01*
X-3463500Y3136260D01*
X-3469500Y3125760D01*
X-3478500Y3116760D01*
X-3489000Y3110760D01*
X-3501000Y3109260D01*
G01X-3431000D02*
Y3199260D01*
X-3393500D01*
X-3381500Y3194760D01*
X-3374000Y3188760D01*
X-3371000Y3176760D01*
X-3374000Y3164760D01*
X-3383000Y3157260D01*
X-3393500Y3152760D01*
X-3431000D01*
G01X-3393500D02*
X-3371000Y3109260D01*
G01X-3220500Y3139260D02*
X-3181500D01*
G01X-2968000Y3191760D02*
X-2977000Y3196260D01*
X-2987500Y3199260D01*
X-2999500D01*
X-3013000Y3194760D01*
X-3023500Y3187260D01*
X-3031000Y3178260D01*
X-3037000Y3163260D01*
X-3038500Y3149760D01*
X-3035500Y3136260D01*
X-3031000Y3127260D01*
X-3022000Y3118260D01*
X-3011500Y3112260D01*
X-3001000Y3109260D01*
X-2990500D01*
X-2980000Y3112260D01*
X-2971000Y3116760D01*
X-2963500Y3122760D01*
G01X-2901000Y3109260D02*
X-2913000Y3110760D01*
X-2923500Y3116760D01*
X-2932500Y3125760D01*
X-2938500Y3136260D01*
X-2941500Y3148260D01*
Y3160260D01*
X-2938500Y3172260D01*
X-2932500Y3182760D01*
X-2923500Y3191760D01*
X-2913000Y3197760D01*
X-2901000Y3199260D01*
X-2889000Y3197760D01*
X-2878500Y3191760D01*
X-2869500Y3182760D01*
X-2863500Y3172260D01*
X-2860500Y3160260D01*
Y3148260D01*
X-2863500Y3136260D01*
X-2869500Y3125760D01*
X-2878500Y3116760D01*
X-2889000Y3110760D01*
X-2901000Y3109260D01*
G01X-2831000D02*
Y3199260D01*
X-2795000D01*
X-2783000Y3194760D01*
X-2774000Y3184260D01*
X-2771000Y3172260D01*
X-2774000Y3160260D01*
X-2781500Y3151260D01*
X-2795000Y3146760D01*
X-2831000D01*
G01X-2731000Y3109260D02*
Y3199260D01*
X-2695000D01*
X-2683000Y3194760D01*
X-2674000Y3184260D01*
X-2671000Y3172260D01*
X-2674000Y3160260D01*
X-2681500Y3151260D01*
X-2695000Y3146760D01*
X-2731000D01*
G01X-2571000Y3109260D02*
X-2631000D01*
Y3199260D01*
X-2571000D01*
G01X-2595000Y3155760D02*
X-2631000D01*
G01X-2531000Y3109260D02*
Y3199260D01*
X-2493500D01*
X-2481500Y3194760D01*
X-2474000Y3188760D01*
X-2471000Y3176760D01*
X-2474000Y3164760D01*
X-2483000Y3157260D01*
X-2493500Y3152760D01*
X-2531000D01*
G01X-2493500D02*
X-2471000Y3109260D01*
G01X-2301000Y3199260D02*
X-2313000Y3196260D01*
X-2322000Y3188760D01*
X-2328000Y3179760D01*
X-2332500Y3167760D01*
X-2334000Y3154260D01*
X-2332500Y3140760D01*
X-2328000Y3128760D01*
X-2322000Y3119760D01*
X-2313000Y3112260D01*
X-2301000Y3109260D01*
X-2289000Y3112260D01*
X-2280000Y3119760D01*
X-2274000Y3128760D01*
X-2269500Y3140760D01*
X-2268000Y3154260D01*
X-2269500Y3167760D01*
X-2274000Y3179760D01*
X-2280000Y3188760D01*
X-2289000Y3196260D01*
X-2301000Y3199260D01*
G01X-2201000Y3106260D02*
X-2204000Y3107760D01*
Y3110760D01*
X-2201000Y3112260D01*
X-2198000Y3110760D01*
Y3107760D01*
X-2201000Y3106260D01*
G01X-2101000Y3199260D02*
X-2113000Y3196260D01*
X-2122000Y3188760D01*
X-2128000Y3179760D01*
X-2132500Y3167760D01*
X-2134000Y3154260D01*
X-2132500Y3140760D01*
X-2128000Y3128760D01*
X-2122000Y3119760D01*
X-2113000Y3112260D01*
X-2101000Y3109260D01*
X-2089000Y3112260D01*
X-2080000Y3119760D01*
X-2074000Y3128760D01*
X-2069500Y3140760D01*
X-2068000Y3154260D01*
X-2069500Y3167760D01*
X-2074000Y3179760D01*
X-2080000Y3188760D01*
X-2089000Y3196260D01*
X-2101000Y3199260D01*
G01X-2034000Y3127260D02*
X-2025000Y3116760D01*
X-2013000Y3110760D01*
X-1999500Y3109260D01*
X-1987500Y3110760D01*
X-1975500Y3118260D01*
X-1968000Y3127260D01*
X-1966500Y3136260D01*
X-1969500Y3146760D01*
X-1980000Y3154260D01*
X-1990500Y3157260D01*
X-2004000D01*
G01X-1990500D02*
X-1981500Y3161760D01*
X-1974000Y3169260D01*
X-1971000Y3178260D01*
X-1974000Y3187260D01*
X-1981500Y3194760D01*
X-1995000Y3199260D01*
X-2008500Y3197760D01*
X-2022000Y3191760D01*
G01X-1901000Y3199260D02*
X-1913000Y3196260D01*
X-1922000Y3188760D01*
X-1928000Y3179760D01*
X-1932500Y3167760D01*
X-1934000Y3154260D01*
X-1932500Y3140760D01*
X-1928000Y3128760D01*
X-1922000Y3119760D01*
X-1913000Y3112260D01*
X-1901000Y3109260D01*
X-1889000Y3112260D01*
X-1880000Y3119760D01*
X-1874000Y3128760D01*
X-1869500Y3140760D01*
X-1868000Y3154260D01*
X-1869500Y3167760D01*
X-1874000Y3179760D01*
X-1880000Y3188760D01*
X-1889000Y3196260D01*
X-1901000Y3199260D01*
G01X-1783000Y3109260D02*
Y3199260D01*
X-1838500Y3134760D01*
X-1763500D01*
G01X-1701000Y3109260D02*
X-1690500Y3110760D01*
X-1678500Y3115260D01*
X-1671000Y3122760D01*
X-1668000Y3133260D01*
X-1671000Y3143760D01*
X-1680000Y3152760D01*
X-1693500Y3157260D01*
X-1708500D01*
X-1717500Y3160260D01*
X-1725000Y3167760D01*
X-1728000Y3178260D01*
X-1723500Y3188760D01*
X-1713000Y3196260D01*
X-1701000Y3199260D01*
X-1689000Y3196260D01*
X-1678500Y3188760D01*
X-1674000Y3178260D01*
X-1677000Y3167760D01*
X-1684500Y3160260D01*
X-1693500Y3157260D01*
X-1708500D01*
X-1722000Y3152760D01*
X-1731000Y3143760D01*
X-1734000Y3133260D01*
X-1731000Y3122760D01*
X-1723500Y3115260D01*
X-1711500Y3110760D01*
X-1701000Y3109260D01*
G01X-1540000D02*
Y3199260D01*
X-1501000Y3124260D01*
X-1462000Y3199260D01*
Y3109260D01*
G01X-1440000D02*
Y3199260D01*
X-1401000Y3124260D01*
X-1362000Y3199260D01*
Y3109260D01*
G01X-6570000Y-1084790D02*
Y2816650D01*
X-5046000D01*
Y-1084790D01*
X-6570000D01*
G01X23000Y-2925000D02*
Y-370000D01*
X12621400D01*
Y-2925000D01*
X23000D01*
G01X302520Y-2131250D02*
Y-1813750D01*
X452140D01*
G01X397010Y-1967200D02*
X302520D01*
G01X645050Y-1813750D02*
X739530D01*
G01X692290D02*
Y-2131250D01*
G01X645050D02*
X739530D01*
G01X1030870Y-1972500D02*
X1109620D01*
Y-2067750D01*
X1085990Y-2099510D01*
X1058430Y-2120670D01*
X1019060Y-2131250D01*
X979690Y-2120670D01*
X952130Y-2099510D01*
X928510Y-2067750D01*
X912760Y-2030710D01*
X904880Y-1988380D01*
Y-1951330D01*
X912760Y-1919590D01*
X928510Y-1882540D01*
X952130Y-1850790D01*
X975750Y-1829630D01*
X1007250Y-1813750D01*
X1034810D01*
X1066300Y-1824330D01*
X1089930Y-1845500D01*
G01X1235600Y-1813750D02*
Y-2041290D01*
X1251340Y-2088930D01*
X1282840Y-2120670D01*
X1322210Y-2131250D01*
X1361580Y-2120670D01*
X1393080Y-2088930D01*
X1408820Y-2041290D01*
Y-1813750D01*
G01X1558430Y-2131250D02*
Y-1813750D01*
X1656850D01*
X1688350Y-1829630D01*
X1708040Y-1850790D01*
X1715910Y-1893130D01*
X1708040Y-1935460D01*
X1684410Y-1961910D01*
X1656850Y-1977800D01*
X1558430D01*
G01X1656850D02*
X1715910Y-2131250D01*
G01X2030870D02*
X1873390D01*
Y-1813750D01*
X2030870D01*
G01X1967880Y-1967200D02*
X1873390D01*
G01X23000Y-2290000D02*
X12621400D01*
G01X23000Y-1020000D02*
X12621400D01*
G01X23000Y-1655000D02*
X12621400D01*
G01X0Y0D02*
Y4000000D01*
X4000000D01*
Y0D01*
X0D01*
G01X2306460Y-1655000D02*
Y-2925000D01*
G01X2298590Y-846250D02*
Y-528750D01*
X2377320D01*
X2408820Y-544630D01*
X2432440Y-565790D01*
X2452130Y-597540D01*
X2467880Y-634590D01*
X2471810Y-687500D01*
X2467880Y-740420D01*
X2452130Y-777460D01*
X2432440Y-809220D01*
X2408820Y-830380D01*
X2377320Y-846250D01*
X2298590D01*
G01X2621420D02*
Y-528750D01*
X2719840D01*
X2751340Y-544630D01*
X2771030Y-565790D01*
X2778900Y-608130D01*
X2771030Y-650460D01*
X2747400Y-676910D01*
X2719840Y-692800D01*
X2621420D01*
G01X2719840D02*
X2778900Y-846250D01*
G01X2967880Y-528750D02*
X3062360D01*
G01X3015120D02*
Y-846250D01*
G01X2967880D02*
X3062360D01*
G01X3251340Y-528750D02*
Y-846250D01*
X3408820D01*
G01X3566300Y-528750D02*
Y-846250D01*
X3723780D01*
G01X4361570Y-555210D02*
X4337950Y-539330D01*
X4310400Y-528750D01*
X4278900D01*
X4243460Y-544630D01*
X4215910Y-571080D01*
X4196220Y-602840D01*
X4180470Y-655750D01*
X4176530Y-703380D01*
X4184410Y-751000D01*
X4196220Y-782750D01*
X4219840Y-814510D01*
X4247400Y-835670D01*
X4274960Y-846250D01*
X4302520D01*
X4330080Y-835670D01*
X4353700Y-819800D01*
X4373390Y-798640D01*
G01X4507240Y-846250D02*
Y-528750D01*
G01X4672600D02*
Y-846250D01*
G01Y-687500D02*
X4507240D01*
G01X4806450Y-846250D02*
X4904880Y-528750D01*
X5003310Y-846250D01*
G01X4967870Y-735130D02*
X4841880D01*
G01X5141100Y-846250D02*
Y-528750D01*
X5239520D01*
X5271020Y-544630D01*
X5290710Y-565790D01*
X5298580Y-608130D01*
X5290710Y-650460D01*
X5267080Y-676910D01*
X5239520Y-692800D01*
X5141100D01*
G01X5239520D02*
X5298580Y-846250D01*
G01X5534800Y-528750D02*
Y-846250D01*
G01X5444250Y-528750D02*
X5625350D01*
G01X5849760Y-856830D02*
X5841880Y-851540D01*
Y-840960D01*
X5849760Y-835670D01*
X5857640Y-840960D01*
Y-851540D01*
X5849760Y-856830D01*
G01Y-713970D02*
X5841880Y-708670D01*
Y-698090D01*
X5849760Y-692800D01*
X5857640Y-698090D01*
Y-708670D01*
X5849760Y-713970D01*
G01X6479680Y-528750D02*
Y-846250D01*
G01X6389130Y-528750D02*
X6570230D01*
G01X6794640Y-846250D02*
X6763140Y-840960D01*
X6735590Y-819800D01*
X6711960Y-788040D01*
X6696210Y-751000D01*
X6688340Y-708670D01*
Y-666330D01*
X6696210Y-624000D01*
X6711960Y-586960D01*
X6735590Y-555210D01*
X6763140Y-534040D01*
X6794640Y-528750D01*
X6826130Y-534040D01*
X6853690Y-555210D01*
X6877320Y-586960D01*
X6893070Y-624000D01*
X6900940Y-666330D01*
Y-708670D01*
X6893070Y-751000D01*
X6877320Y-788040D01*
X6853690Y-819800D01*
X6826130Y-840960D01*
X6794640Y-846250D01*
G01X7030860D02*
Y-528750D01*
X7125350D01*
X7156840Y-544630D01*
X7180470Y-581670D01*
X7188340Y-624000D01*
X7180470Y-666330D01*
X7160780Y-698090D01*
X7125350Y-713970D01*
X7030860D01*
G01X7739520Y-528750D02*
Y-846250D01*
G01X7684400Y-634590D02*
X7794640D01*
G01X8054480Y-846250D02*
X8030860Y-840960D01*
X8007240Y-819800D01*
X7991480Y-782750D01*
X7983610Y-740420D01*
X7991480Y-698090D01*
X8007240Y-661040D01*
X8030860Y-639880D01*
X8054480Y-634590D01*
X8078100Y-639880D01*
X8101720Y-661040D01*
X8117470Y-698090D01*
X8121410Y-740420D01*
X8117470Y-782750D01*
X8101720Y-819800D01*
X8078100Y-840960D01*
X8054480Y-846250D01*
G01X8715890Y-676910D02*
X8731640Y-661040D01*
X8743450Y-634590D01*
X8751330Y-597540D01*
X8743450Y-565790D01*
X8727710Y-544630D01*
X8700150Y-528750D01*
X8593850D01*
Y-846250D01*
X8723770D01*
X8751330Y-825090D01*
X8767080Y-793330D01*
X8774950Y-756290D01*
X8767080Y-719260D01*
X8743450Y-687500D01*
X8715890Y-676910D01*
X8593850D01*
G01X8999360Y-846250D02*
X8967860Y-840960D01*
X8940310Y-819800D01*
X8916680Y-788040D01*
X8900930Y-751000D01*
X8893060Y-708670D01*
Y-666330D01*
X8900930Y-624000D01*
X8916680Y-586960D01*
X8940310Y-555210D01*
X8967860Y-534040D01*
X8999360Y-528750D01*
X9030850Y-534040D01*
X9058410Y-555210D01*
X9082040Y-586960D01*
X9097790Y-624000D01*
X9105660Y-666330D01*
Y-708670D01*
X9097790Y-751000D01*
X9082040Y-788040D01*
X9058410Y-819800D01*
X9030850Y-840960D01*
X8999360Y-846250D01*
G01X9314320Y-528750D02*
Y-846250D01*
G01X9223770Y-528750D02*
X9404870D01*
G01X9629280D02*
Y-846250D01*
G01X9538730Y-528750D02*
X9719830D01*
G01X9944240Y-846250D02*
X9912740Y-840960D01*
X9885190Y-819800D01*
X9861560Y-788040D01*
X9845810Y-751000D01*
X9837940Y-708670D01*
Y-666330D01*
X9845810Y-624000D01*
X9861560Y-586960D01*
X9885190Y-555210D01*
X9912740Y-534040D01*
X9944240Y-528750D01*
X9975730Y-534040D01*
X10003290Y-555210D01*
X10026920Y-586960D01*
X10042670Y-624000D01*
X10050540Y-666330D01*
Y-708670D01*
X10042670Y-751000D01*
X10026920Y-788040D01*
X10003290Y-819800D01*
X9975730Y-840960D01*
X9944240Y-846250D01*
G01X10156830D02*
Y-528750D01*
X10259200Y-793330D01*
X10361570Y-528750D01*
Y-846250D01*
G01X1971810Y-1496250D02*
X2070240Y-1178750D01*
X2168670Y-1496250D01*
G01X2133230Y-1385130D02*
X2007240D01*
G01X2306460Y-1178750D02*
Y-1496250D01*
X2463940D01*
G01X2621420Y-1178750D02*
Y-1496250D01*
X2778900D01*
G01X3243470Y-1178750D02*
Y-1406290D01*
X3259210Y-1453930D01*
X3290710Y-1485670D01*
X3330080Y-1496250D01*
X3369450Y-1485670D01*
X3400950Y-1453930D01*
X3416690Y-1406290D01*
Y-1178750D01*
G01X3554490Y-1496250D02*
Y-1178750D01*
X3735590Y-1496250D01*
Y-1178750D01*
G01X3912760D02*
X4007240D01*
G01X3960000D02*
Y-1496250D01*
G01X3912760D02*
X4007240D01*
G01X4274960Y-1178750D02*
Y-1496250D01*
G01X4184410Y-1178750D02*
X4365510D01*
G01X4507240Y-1453930D02*
X4538740Y-1480380D01*
X4574170Y-1496250D01*
X4605670D01*
X4637160Y-1480380D01*
X4660790Y-1453930D01*
X4672600Y-1416870D01*
X4664730Y-1379840D01*
X4645040Y-1348090D01*
X4609600Y-1326910D01*
X4562360Y-1316330D01*
X4534800Y-1295170D01*
X4522990Y-1258130D01*
X4530870Y-1221080D01*
X4550550Y-1194630D01*
X4578110Y-1178750D01*
X4605670D01*
X4633230Y-1189330D01*
X4656850Y-1215790D01*
G01X5121410Y-1496250D02*
X5219840Y-1178750D01*
X5318270Y-1496250D01*
G01X5282830Y-1385130D02*
X5156840D01*
G01X5456060Y-1496250D02*
Y-1178750D01*
X5554480D01*
X5585980Y-1194630D01*
X5605670Y-1215790D01*
X5613540Y-1258130D01*
X5605670Y-1300460D01*
X5582040Y-1326910D01*
X5554480Y-1342800D01*
X5456060D01*
G01X5554480D02*
X5613540Y-1496250D01*
G01X5928500D02*
X5771020D01*
Y-1178750D01*
X5928500D01*
G01X5865510Y-1332200D02*
X5771020D01*
G01X6432440Y-1178750D02*
X6526920D01*
G01X6479680D02*
Y-1496250D01*
G01X6432440D02*
X6526920D01*
G01X6704090D02*
Y-1178750D01*
X6885190Y-1496250D01*
Y-1178750D01*
G01X7322190Y-1496250D02*
Y-1178750D01*
X7424560Y-1443330D01*
X7526930Y-1178750D01*
Y-1496250D01*
G01X7692280Y-1178750D02*
X7786760D01*
G01X7739520D02*
Y-1496250D01*
G01X7692280D02*
X7786760D01*
G01X7975740Y-1178750D02*
Y-1496250D01*
X8133220D01*
G01X8290700Y-1178750D02*
Y-1496250D01*
X8448180D01*
G01X8637160Y-1178750D02*
X8731640D01*
G01X8684400D02*
Y-1496250D01*
G01X8637160D02*
X8731640D01*
G01X8896990D02*
Y-1178750D01*
X8999360Y-1443330D01*
X9101730Y-1178750D01*
Y-1496250D01*
G01X9393060D02*
X9235580D01*
Y-1178750D01*
X9393060D01*
G01X9330070Y-1332200D02*
X9235580D01*
G01X9629280Y-1178750D02*
Y-1496250D01*
G01X9538730Y-1178750D02*
X9719830D01*
G01X10022980Y-1496250D02*
X9865500D01*
Y-1178750D01*
X10022980D01*
G01X9959990Y-1332200D02*
X9865500D01*
G01X10180460Y-1496250D02*
Y-1178750D01*
X10278880D01*
X10310380Y-1194630D01*
X10330070Y-1215790D01*
X10337940Y-1258130D01*
X10330070Y-1300460D01*
X10306440Y-1326910D01*
X10278880Y-1342800D01*
X10180460D01*
G01X10278880D02*
X10337940Y-1496250D01*
G01X10491480Y-1453930D02*
X10522980Y-1480380D01*
X10558410Y-1496250D01*
X10589910D01*
X10621400Y-1480380D01*
X10645030Y-1453930D01*
X10656840Y-1416870D01*
X10648970Y-1379840D01*
X10629280Y-1348090D01*
X10593840Y-1326910D01*
X10546600Y-1316330D01*
X10519040Y-1295170D01*
X10507230Y-1258130D01*
X10515110Y-1221080D01*
X10534790Y-1194630D01*
X10562350Y-1178750D01*
X10589910D01*
X10617470Y-1189330D01*
X10641090Y-1215790D01*
G01X2900940Y-2131250D02*
Y-1813750D01*
X3050560D01*
G01X2995430Y-1967200D02*
X2900940D01*
G01X3243470Y-1813750D02*
X3337950D01*
G01X3290710D02*
Y-2131250D01*
G01X3243470D02*
X3337950D01*
G01X3515120D02*
Y-1813750D01*
X3696220Y-2131250D01*
Y-1813750D01*
G01X3873390D02*
X3967870D01*
G01X3920630D02*
Y-2131250D01*
G01X3873390D02*
X3967870D01*
G01X4152910Y-2088930D02*
X4184410Y-2115380D01*
X4219840Y-2131250D01*
X4251340D01*
X4282830Y-2115380D01*
X4306460Y-2088930D01*
X4318270Y-2051870D01*
X4310400Y-2014840D01*
X4290710Y-1983090D01*
X4255270Y-1961910D01*
X4208030Y-1951330D01*
X4180470Y-1930170D01*
X4168660Y-1893130D01*
X4176540Y-1856080D01*
X4196220Y-1829630D01*
X4223780Y-1813750D01*
X4251340D01*
X4278900Y-1824330D01*
X4302520Y-1850790D01*
G01X4467870Y-2131250D02*
Y-1813750D01*
G01X4633230D02*
Y-2131250D01*
G01Y-1972500D02*
X4467870D01*
G01X4944250Y-2131250D02*
X4786770D01*
Y-1813750D01*
X4944250D01*
G01X4881260Y-1967200D02*
X4786770D01*
G01X5093860Y-2131250D02*
Y-1813750D01*
X5172590D01*
X5204090Y-1829630D01*
X5227710Y-1850790D01*
X5247400Y-1882540D01*
X5263150Y-1919590D01*
X5267080Y-1972500D01*
X5263150Y-2025420D01*
X5247400Y-2062460D01*
X5227710Y-2094220D01*
X5204090Y-2115380D01*
X5172590Y-2131250D01*
X5093860D01*
G01X5377320Y-2237080D02*
X5613540D01*
G01X5727710Y-2088930D02*
X5759210Y-2115380D01*
X5794640Y-2131250D01*
X5826140D01*
X5857630Y-2115380D01*
X5881260Y-2088930D01*
X5893070Y-2051870D01*
X5885200Y-2014840D01*
X5865510Y-1983090D01*
X5830070Y-1961910D01*
X5782830Y-1951330D01*
X5755270Y-1930170D01*
X5743460Y-1893130D01*
X5751340Y-1856080D01*
X5771020Y-1829630D01*
X5798580Y-1813750D01*
X5826140D01*
X5853700Y-1824330D01*
X5877320Y-1850790D01*
G01X6078110Y-1813750D02*
X6172590D01*
G01X6125350D02*
Y-2131250D01*
G01X6078110D02*
X6172590D01*
G01X6365500Y-1813750D02*
X6515120D01*
X6365500Y-2131250D01*
X6515120D01*
G01X6834010D02*
X6676530D01*
Y-1813750D01*
X6834010D01*
G01X6771020Y-1967200D02*
X6676530D01*
G01X4550550Y-2448750D02*
X4519050Y-2459330D01*
X4495430Y-2485790D01*
X4479680Y-2517540D01*
X4467870Y-2559880D01*
X4463940Y-2607500D01*
X4467870Y-2655130D01*
X4479680Y-2697460D01*
X4495430Y-2729220D01*
X4519050Y-2755670D01*
X4550550Y-2766250D01*
X4582040Y-2755670D01*
X4605670Y-2729220D01*
X4621420Y-2697460D01*
X4633230Y-2655130D01*
X4637160Y-2607500D01*
X4633230Y-2559880D01*
X4621420Y-2517540D01*
X4605670Y-2485790D01*
X4582040Y-2459330D01*
X4550550Y-2448750D01*
G01X4865510Y-2776830D02*
X4857630Y-2771540D01*
Y-2760960D01*
X4865510Y-2755670D01*
X4873390Y-2760960D01*
Y-2771540D01*
X4865510Y-2776830D01*
G01X5227710Y-2766250D02*
Y-2448750D01*
X5082040Y-2676290D01*
X5278900D01*
G01X7424560Y-1655000D02*
Y-2925000D01*
G01X8172590Y-2766250D02*
Y-2448750D01*
X8267080D01*
X8298570Y-2464630D01*
X8322200Y-2501670D01*
X8330070Y-2544000D01*
X8322200Y-2586330D01*
X8302510Y-2618090D01*
X8267080Y-2633970D01*
X8172590D01*
G01X8487550Y-2448750D02*
Y-2766250D01*
X8645030D01*
G01X8782820D02*
X8881250Y-2448750D01*
X8979680Y-2766250D01*
G01X8944240Y-2655130D02*
X8818250D01*
G01X9196210Y-2448750D02*
Y-2766250D01*
G01X9105660Y-2448750D02*
X9286760D01*
G01X9589910Y-2766250D02*
X9432430D01*
Y-2448750D01*
X9589910D01*
G01X9526920Y-2602200D02*
X9432430D01*
G01X9739520Y-2766250D02*
Y-2448750D01*
X9818250D01*
X9849750Y-2464630D01*
X9873370Y-2485790D01*
X9893060Y-2517540D01*
X9908810Y-2554590D01*
X9912740Y-2607500D01*
X9908810Y-2660420D01*
X9893060Y-2697460D01*
X9873370Y-2729220D01*
X9849750Y-2750380D01*
X9818250Y-2766250D01*
X9739520D01*
G01X8172590Y-2131250D02*
Y-1813750D01*
X8267080D01*
X8298570Y-1829630D01*
X8322200Y-1866670D01*
X8330070Y-1909000D01*
X8322200Y-1951330D01*
X8302510Y-1983090D01*
X8267080Y-1998970D01*
X8172590D01*
G01X8487550Y-1813750D02*
Y-2131250D01*
X8645030D01*
G01X8782820D02*
X8881250Y-1813750D01*
X8979680Y-2131250D01*
G01X8944240Y-2020130D02*
X8818250D01*
G01X9196210Y-1813750D02*
Y-2131250D01*
G01X9105660Y-1813750D02*
X9286760D01*
G01X9589910Y-2131250D02*
X9432430D01*
Y-1813750D01*
X9589910D01*
G01X9526920Y-1967200D02*
X9432430D01*
G01X9739520Y-2131250D02*
Y-1813750D01*
X9818250D01*
X9849750Y-1829630D01*
X9873370Y-1850790D01*
X9893060Y-1882540D01*
X9908810Y-1919590D01*
X9912740Y-1972500D01*
X9908810Y-2025420D01*
X9893060Y-2062460D01*
X9873370Y-2094220D01*
X9849750Y-2115380D01*
X9818250Y-2131250D01*
X9739520D01*
G01X10652900Y-1655000D02*
Y-2925000D01*
G01X11404860Y-2501670D02*
X11428490Y-2469920D01*
X11456050Y-2454040D01*
X11487550Y-2448750D01*
X11526910Y-2459330D01*
X11554480Y-2485790D01*
X11562350Y-2517540D01*
X11558410Y-2549300D01*
X11542660Y-2575750D01*
X11463920Y-2628670D01*
X11428490Y-2665710D01*
X11404860Y-2718640D01*
X11396990Y-2766250D01*
X11562350D01*
G01X11719820Y-2633970D02*
X11747390Y-2596910D01*
X11771010Y-2575750D01*
X11802510Y-2565170D01*
X11830070Y-2575750D01*
X11849750Y-2596910D01*
X11865500Y-2628670D01*
X11869440Y-2665710D01*
X11865500Y-2697460D01*
X11849750Y-2729220D01*
X11826120Y-2755670D01*
X11798570Y-2766250D01*
X11767070Y-2755670D01*
X11739510Y-2723930D01*
X11723760Y-2676290D01*
X11719820Y-2623380D01*
X11727700Y-2554590D01*
X11739510Y-2517540D01*
X11759190Y-2480500D01*
X11786750Y-2454040D01*
X11814310Y-2448750D01*
X11841870Y-2459330D01*
X11861560Y-2485790D01*
G01X11322190Y-2131250D02*
X11290690Y-2125960D01*
X11263140Y-2104800D01*
X11239510Y-2073040D01*
X11223760Y-2036000D01*
X11215890Y-1993670D01*
Y-1951330D01*
X11223760Y-1909000D01*
X11239510Y-1871960D01*
X11263140Y-1840210D01*
X11290690Y-1819040D01*
X11322190Y-1813750D01*
X11353680Y-1819040D01*
X11381240Y-1840210D01*
X11404870Y-1871960D01*
X11420620Y-1909000D01*
X11428490Y-1951330D01*
Y-1993670D01*
X11420620Y-2036000D01*
X11404870Y-2073040D01*
X11381240Y-2104800D01*
X11353680Y-2125960D01*
X11322190Y-2131250D01*
G01X11353680Y-2046580D02*
X11400930Y-2131250D01*
G01X11637150Y-1813750D02*
Y-2131250D01*
G01X11546600Y-1813750D02*
X11727700D01*
G01X11952110Y-2131250D02*
Y-1988380D01*
X11873370Y-1813750D01*
G01X12030850D02*
X11952110Y-1988380D01*
M02*
