G04 ================== begin FILE IDENTIFICATION RECORD ==================*
G04 Layout Name:  Proiect1_versiunea1_PCB.brd*
G04 Film Name:    SSTOP*
G04 File Format:  Gerber RS274X*
G04 File Origin:  Cadence Allegro 17.2-S025*
G04 Origin Date:  Thu Dec 16 13:17:41 2021*
G04 *
G04 Layer:  REF DES/SILKSCREEN_TOP*
G04 Layer:  PACKAGE GEOMETRY/SILKSCREEN_TOP*
G04 Layer:  BOARD GEOMETRY/SILKSCREEN_TOP*
G04 *
G04 Offset:    (0.0000 0.0000)*
G04 Mirror:    No*
G04 Mode:      Positive*
G04 Rotation:  0*
G04 FullContactRelief:  No*
G04 UndefLineWidth:     0.1000*
G04 ================== end FILE IDENTIFICATION RECORD ====================*
%FSLAX25Y25*MOMM*%
%IR0*IPPOS*OFA0.00000B0.00000*MIA0B0*SFA1.00000B1.00000*%
%ADD10C,.1*%
%ADD11C,.2*%
%ADD12C,.1524*%
G75*
%LPD*%
G75*
G54D10*
G01X205500Y286000D02*
Y376000D01*
X274500Y286000D01*
Y376000D01*
G01X317500Y326500D02*
X365500D01*
X361000Y337000D01*
X353500Y343000D01*
X343000Y346000D01*
X332500Y344500D01*
X323500Y340000D01*
X317500Y329500D01*
X314500Y320500D01*
Y311500D01*
X317500Y302500D01*
X325000Y293500D01*
X334000Y287500D01*
X344500Y286000D01*
X355000Y289000D01*
X365500Y298000D01*
G01X467000Y286000D02*
Y346000D01*
G01Y335500D02*
X461000Y341500D01*
X452000Y344500D01*
X441500Y346000D01*
X431000Y343000D01*
X422000Y337000D01*
X416000Y328000D01*
X413000Y316000D01*
X416000Y304000D01*
X422000Y295000D01*
X431000Y289000D01*
X441500Y286000D01*
X452000Y287500D01*
X461000Y292000D01*
X467000Y298000D01*
G01X519000Y263500D02*
X529500Y257500D01*
X541500Y256000D01*
X552000Y257500D01*
X561000Y265000D01*
X567000Y275500D01*
Y346000D01*
G01Y334000D02*
X561000Y340000D01*
X552000Y344500D01*
X541500Y346000D01*
X529500Y343000D01*
X522000Y337000D01*
X516000Y326500D01*
X513000Y316000D01*
X514500Y307000D01*
X520500Y296500D01*
X529500Y289000D01*
X541500Y286000D01*
X550500Y287500D01*
X561000Y293500D01*
X567000Y299500D01*
G01X667000Y286000D02*
Y346000D01*
G01Y335500D02*
X661000Y341500D01*
X652000Y344500D01*
X641500Y346000D01*
X631000Y343000D01*
X622000Y337000D01*
X616000Y328000D01*
X613000Y316000D01*
X616000Y304000D01*
X622000Y295000D01*
X631000Y289000D01*
X641500Y286000D01*
X652000Y287500D01*
X661000Y292000D01*
X667000Y298000D01*
G01X810000Y376000D02*
Y286000D01*
X870000D01*
G01X967000D02*
Y346000D01*
G01Y335500D02*
X961000Y341500D01*
X952000Y344500D01*
X941500Y346000D01*
X931000Y343000D01*
X922000Y337000D01*
X916000Y328000D01*
X913000Y316000D01*
X916000Y304000D01*
X922000Y295000D01*
X931000Y289000D01*
X941500Y286000D01*
X952000Y287500D01*
X961000Y292000D01*
X967000Y298000D01*
G01X1014500Y346000D02*
Y304000D01*
X1020500Y293500D01*
X1029500Y287500D01*
X1040000Y286000D01*
X1050500Y287500D01*
X1059500Y293500D01*
X1065500Y304000D01*
G01Y286000D02*
Y346000D01*
G01X1119000Y286000D02*
Y346000D01*
G01Y334000D02*
X1126500Y340000D01*
X1134000Y344500D01*
X1144500Y346000D01*
X1152000Y344500D01*
X1161000Y340000D01*
G01X1267000Y286000D02*
Y346000D01*
G01Y335500D02*
X1261000Y341500D01*
X1252000Y344500D01*
X1241500Y346000D01*
X1231000Y343000D01*
X1222000Y337000D01*
X1216000Y328000D01*
X1213000Y316000D01*
X1216000Y304000D01*
X1222000Y295000D01*
X1231000Y289000D01*
X1241500Y286000D01*
X1252000Y287500D01*
X1261000Y292000D01*
X1267000Y298000D01*
G01X1458000Y286000D02*
Y376000D01*
X1402500Y311500D01*
X1477500D01*
G01X1507000Y304000D02*
X1516000Y293500D01*
X1528000Y287500D01*
X1541500Y286000D01*
X1553500Y287500D01*
X1565500Y295000D01*
X1573000Y304000D01*
X1574500Y313000D01*
X1571500Y323500D01*
X1561000Y331000D01*
X1550500Y334000D01*
X1537000D01*
G01X1550500D02*
X1559500Y338500D01*
X1567000Y346000D01*
X1570000Y355000D01*
X1567000Y364000D01*
X1559500Y371500D01*
X1546000Y376000D01*
X1532500Y374500D01*
X1519000Y368500D01*
G01X1607000Y304000D02*
X1616000Y293500D01*
X1628000Y287500D01*
X1641500Y286000D01*
X1653500Y287500D01*
X1665500Y295000D01*
X1673000Y304000D01*
X1674500Y313000D01*
X1671500Y323500D01*
X1661000Y331000D01*
X1650500Y334000D01*
X1637000D01*
G01X1650500D02*
X1659500Y338500D01*
X1667000Y346000D01*
X1670000Y355000D01*
X1667000Y364000D01*
X1659500Y371500D01*
X1646000Y376000D01*
X1632500Y374500D01*
X1619000Y368500D01*
G01X1773000D02*
X1764000Y373000D01*
X1753500Y376000D01*
X1741500D01*
X1728000Y371500D01*
X1717500Y364000D01*
X1710000Y355000D01*
X1704000Y340000D01*
X1702500Y326500D01*
X1705500Y313000D01*
X1710000Y304000D01*
X1719000Y295000D01*
X1729500Y289000D01*
X1740000Y286000D01*
X1750500D01*
X1761000Y289000D01*
X1770000Y293500D01*
X1777500Y299500D01*
G01X203000Y149000D02*
Y239000D01*
X239000D01*
X251000Y234500D01*
X260000Y224000D01*
X263000Y212000D01*
X260000Y200000D01*
X252500Y191000D01*
X239000Y186500D01*
X203000D01*
G01X300000Y149000D02*
Y239000D01*
X330000D01*
X342000Y234500D01*
X351000Y228500D01*
X358500Y219500D01*
X364500Y209000D01*
X366000Y194000D01*
X364500Y179000D01*
X358500Y168500D01*
X351000Y159500D01*
X342000Y153500D01*
X330000Y149000D01*
X300000D01*
G01X466000Y231500D02*
X457000Y236000D01*
X446500Y239000D01*
X434500D01*
X421000Y234500D01*
X410500Y227000D01*
X403000Y218000D01*
X397000Y203000D01*
X395500Y189500D01*
X398500Y176000D01*
X403000Y167000D01*
X412000Y158000D01*
X422500Y152000D01*
X433000Y149000D01*
X443500D01*
X454000Y152000D01*
X463000Y156500D01*
X470500Y162500D01*
G01X563000Y149000D02*
X503000D01*
Y239000D01*
X563000D01*
G01X539000Y195500D02*
X503000D01*
G01X715000Y239000D02*
X751000D01*
G01X733000D02*
Y149000D01*
G01X715000D02*
X751000D01*
G01X904500Y224000D02*
X913500Y233000D01*
X924000Y237500D01*
X936000Y239000D01*
X951000Y236000D01*
X961500Y228500D01*
X964500Y219500D01*
X963000Y210500D01*
X957000Y203000D01*
X927000Y188000D01*
X913500Y177500D01*
X904500Y162500D01*
X901500Y149000D01*
X964500D01*
G01X1033000Y239000D02*
X1021000Y236000D01*
X1012000Y228500D01*
X1006000Y219500D01*
X1001500Y207500D01*
X1000000Y194000D01*
X1001500Y180500D01*
X1006000Y168500D01*
X1012000Y159500D01*
X1021000Y152000D01*
X1033000Y149000D01*
X1045000Y152000D01*
X1054000Y159500D01*
X1060000Y168500D01*
X1064500Y180500D01*
X1066000Y194000D01*
X1064500Y207500D01*
X1060000Y219500D01*
X1054000Y228500D01*
X1045000Y236000D01*
X1033000Y239000D01*
G01X1104500Y224000D02*
X1113500Y233000D01*
X1124000Y237500D01*
X1136000Y239000D01*
X1151000Y236000D01*
X1161500Y228500D01*
X1164500Y219500D01*
X1163000Y210500D01*
X1157000Y203000D01*
X1127000Y188000D01*
X1113500Y177500D01*
X1104500Y162500D01*
X1101500Y149000D01*
X1164500D01*
G01X1233000D02*
Y239000D01*
X1215000Y221000D01*
G01Y149000D02*
X1251000D01*
G01X1313500Y179000D02*
X1352500D01*
G01X1404500Y224000D02*
X1413500Y233000D01*
X1424000Y237500D01*
X1436000Y239000D01*
X1451000Y236000D01*
X1461500Y228500D01*
X1464500Y219500D01*
X1463000Y210500D01*
X1457000Y203000D01*
X1427000Y188000D01*
X1413500Y177500D01*
X1404500Y162500D01*
X1401500Y149000D01*
X1464500D01*
G01X1533000Y239000D02*
X1521000Y236000D01*
X1512000Y228500D01*
X1506000Y219500D01*
X1501500Y207500D01*
X1500000Y194000D01*
X1501500Y180500D01*
X1506000Y168500D01*
X1512000Y159500D01*
X1521000Y152000D01*
X1533000Y149000D01*
X1545000Y152000D01*
X1554000Y159500D01*
X1560000Y168500D01*
X1564500Y180500D01*
X1566000Y194000D01*
X1564500Y207500D01*
X1560000Y219500D01*
X1554000Y228500D01*
X1545000Y236000D01*
X1533000Y239000D01*
G01X1604500Y224000D02*
X1613500Y233000D01*
X1624000Y237500D01*
X1636000Y239000D01*
X1651000Y236000D01*
X1661500Y228500D01*
X1664500Y219500D01*
X1663000Y210500D01*
X1657000Y203000D01*
X1627000Y188000D01*
X1613500Y177500D01*
X1604500Y162500D01*
X1601500Y149000D01*
X1664500D01*
G01X1704500Y224000D02*
X1713500Y233000D01*
X1724000Y237500D01*
X1736000Y239000D01*
X1751000Y236000D01*
X1761500Y228500D01*
X1764500Y219500D01*
X1763000Y210500D01*
X1757000Y203000D01*
X1727000Y188000D01*
X1713500Y177500D01*
X1704500Y162500D01*
X1701500Y149000D01*
X1764500D01*
G01X267330Y1226670D02*
X259330Y1231670D01*
X250000Y1235000D01*
X239330D01*
X227330Y1230000D01*
X218000Y1221670D01*
X211330Y1211670D01*
X206000Y1195000D01*
X204670Y1180000D01*
X207330Y1165000D01*
X211330Y1155000D01*
X219330Y1145000D01*
X228670Y1138330D01*
X238000Y1135000D01*
X247330D01*
X256670Y1138330D01*
X264670Y1143330D01*
X271330Y1150000D01*
G01X293670Y1218330D02*
X301670Y1228330D01*
X311000Y1233330D01*
X321670Y1235000D01*
X335000Y1231670D01*
X344330Y1223330D01*
X347000Y1213330D01*
X345670Y1203330D01*
X340330Y1195000D01*
X313670Y1178330D01*
X301670Y1166670D01*
X293670Y1150000D01*
X291000Y1135000D01*
X347000D01*
G01X490000Y2378330D02*
X390000D01*
Y2411670D01*
X395000Y2422330D01*
X401670Y2429000D01*
X415000Y2431670D01*
X428330Y2429000D01*
X436670Y2421000D01*
X441670Y2411670D01*
Y2378330D01*
G01Y2411670D02*
X490000Y2431670D01*
G01Y2486000D02*
X390000D01*
X410000Y2470000D01*
G01X490000D02*
Y2502000D01*
G01X406670Y2541670D02*
X396670Y2549670D01*
X391670Y2559000D01*
X390000Y2569670D01*
X393330Y2583000D01*
X401670Y2592330D01*
X411670Y2595000D01*
X421670Y2593670D01*
X430000Y2588330D01*
X446670Y2561670D01*
X458330Y2549670D01*
X475000Y2541670D01*
X490000Y2539000D01*
Y2595000D01*
G01X543330Y889000D02*
X550000Y879000D01*
X558000Y872330D01*
X567330Y869000D01*
X578000Y872330D01*
X586000Y879000D01*
X594000Y889000D01*
X596670Y902330D01*
Y969000D01*
G01X625670Y952330D02*
X633670Y962330D01*
X643000Y967330D01*
X653670Y969000D01*
X667000Y965670D01*
X676330Y957330D01*
X679000Y947330D01*
X677670Y937330D01*
X672330Y929000D01*
X645670Y912330D01*
X633670Y900670D01*
X625670Y884000D01*
X623000Y869000D01*
X679000D01*
G01X628330Y1142000D02*
Y1242000D01*
X661670D01*
X672330Y1237000D01*
X679000Y1230330D01*
X681670Y1217000D01*
X679000Y1203670D01*
X671000Y1195330D01*
X661670Y1190330D01*
X628330D01*
G01X661670D02*
X681670Y1142000D01*
G01X736000D02*
Y1242000D01*
X720000Y1222000D01*
G01Y1142000D02*
X752000D01*
G01X817000D02*
X826330Y1143670D01*
X837000Y1148670D01*
X843670Y1157000D01*
X846330Y1168670D01*
X843670Y1180330D01*
X835670Y1190330D01*
X823670Y1195330D01*
X810330D01*
X802330Y1198670D01*
X795670Y1207000D01*
X793000Y1218670D01*
X797000Y1230330D01*
X806330Y1238670D01*
X817000Y1242000D01*
X827670Y1238670D01*
X837000Y1230330D01*
X841000Y1218670D01*
X838330Y1207000D01*
X831670Y1198670D01*
X823670Y1195330D01*
X810330D01*
X798330Y1190330D01*
X790330Y1180330D01*
X787670Y1168670D01*
X790330Y1157000D01*
X797000Y1148670D01*
X807670Y1143670D01*
X817000Y1142000D01*
G01X915000Y1894000D02*
X904330Y1895670D01*
X895000Y1902330D01*
X887000Y1912330D01*
X881670Y1924000D01*
X879000Y1937330D01*
Y1950670D01*
X881670Y1964000D01*
X887000Y1975670D01*
X895000Y1985670D01*
X904330Y1992330D01*
X915000Y1994000D01*
X925670Y1992330D01*
X935000Y1985670D01*
X943000Y1975670D01*
X948330Y1964000D01*
X951000Y1950670D01*
Y1937330D01*
X948330Y1924000D01*
X943000Y1912330D01*
X935000Y1902330D01*
X925670Y1895670D01*
X915000Y1894000D01*
G01X925670Y1920670D02*
X941670Y1894000D01*
G01X993330D02*
X996000Y1915670D01*
X1000000Y1934000D01*
X1005330Y1950670D01*
X1012000Y1969000D01*
X1022670Y1994000D01*
X969330D01*
G01X500000Y1827330D02*
X400000D01*
Y1860670D01*
X405000Y1871330D01*
X411670Y1878000D01*
X425000Y1880670D01*
X438330Y1878000D01*
X446670Y1870000D01*
X451670Y1860670D01*
Y1827330D01*
G01Y1860670D02*
X500000Y1880670D01*
G01Y1935000D02*
X400000D01*
X420000Y1919000D01*
G01X500000D02*
Y1951000D01*
G01X485000Y1986670D02*
X493330Y1994670D01*
X498330Y2004000D01*
X500000Y2016000D01*
X496670Y2028000D01*
X490000Y2037330D01*
X478330Y2044000D01*
X465000Y2045330D01*
X451670Y2042670D01*
X443330Y2036000D01*
X436670Y2026670D01*
X435000Y2017330D01*
X436670Y2008000D01*
X443330Y1996000D01*
X400000Y2000000D01*
Y2036000D01*
G01X845000Y2824330D02*
X745000D01*
Y2857670D01*
X750000Y2868330D01*
X756670Y2875000D01*
X770000Y2877670D01*
X783330Y2875000D01*
X791670Y2867000D01*
X796670Y2857670D01*
Y2824330D01*
G01Y2857670D02*
X845000Y2877670D01*
G01Y2932000D02*
X745000D01*
X765000Y2916000D01*
G01X845000D02*
Y2948000D01*
G01Y3013000D02*
X745000D01*
X765000Y2997000D01*
G01X845000D02*
Y3029000D01*
G01X846000Y2394330D02*
X746000D01*
Y2427670D01*
X751000Y2438330D01*
X757670Y2445000D01*
X771000Y2447670D01*
X784330Y2445000D01*
X792670Y2437000D01*
X797670Y2427670D01*
Y2394330D01*
G01Y2427670D02*
X846000Y2447670D01*
G01Y2502000D02*
X746000D01*
X766000Y2486000D01*
G01X846000D02*
Y2518000D01*
G01X826000Y2553670D02*
X837670Y2561670D01*
X844330Y2572330D01*
X846000Y2584330D01*
X844330Y2595000D01*
X836000Y2605670D01*
X826000Y2612330D01*
X816000Y2613670D01*
X804340Y2611000D01*
X796000Y2601670D01*
X792670Y2592330D01*
Y2580330D01*
G01Y2592330D02*
X787670Y2600330D01*
X779340Y2607000D01*
X769330Y2609670D01*
X759330Y2607000D01*
X751000Y2600330D01*
X746000Y2588330D01*
X747670Y2576330D01*
X754330Y2564330D01*
G01X1172330Y2794000D02*
Y2894000D01*
X1205670D01*
X1216330Y2889000D01*
X1223000Y2882330D01*
X1225670Y2869000D01*
X1223000Y2855670D01*
X1215000Y2847330D01*
X1205670Y2842330D01*
X1172330D01*
G01X1205670D02*
X1225670Y2794000D01*
G01X1254670Y2877330D02*
X1262670Y2887330D01*
X1272000Y2892330D01*
X1282670Y2894000D01*
X1296000Y2890670D01*
X1305330Y2882330D01*
X1308000Y2872330D01*
X1306670Y2862330D01*
X1301330Y2854000D01*
X1274670Y2837330D01*
X1262670Y2825670D01*
X1254670Y2809000D01*
X1252000Y2794000D01*
X1308000D01*
G01X1123670Y3282000D02*
Y3382000D01*
X1150330D01*
X1161000Y3377000D01*
X1169000Y3370330D01*
X1175670Y3360330D01*
X1181000Y3348660D01*
X1182330Y3332000D01*
X1181000Y3315330D01*
X1175670Y3303670D01*
X1169000Y3293660D01*
X1161000Y3287000D01*
X1150330Y3282000D01*
X1123670D01*
G01X1208670Y3365330D02*
X1216670Y3375330D01*
X1226000Y3380330D01*
X1236670Y3382000D01*
X1250000Y3378670D01*
X1259330Y3370330D01*
X1262000Y3360330D01*
X1260670Y3350330D01*
X1255330Y3342000D01*
X1228670Y3325330D01*
X1216670Y3313670D01*
X1208670Y3297000D01*
X1206000Y3282000D01*
X1262000D01*
G01X566330Y3728000D02*
X573000Y3718000D01*
X581000Y3711330D01*
X590330Y3708000D01*
X601000Y3711330D01*
X609000Y3718000D01*
X617000Y3728000D01*
X619670Y3741330D01*
Y3808000D01*
G01X674000Y3708000D02*
Y3808000D01*
X658000Y3788000D01*
G01Y3708000D02*
X690000D01*
G01X1251330Y478000D02*
Y578000D01*
X1284670D01*
X1295330Y573000D01*
X1302000Y566330D01*
X1304670Y553000D01*
X1302000Y539670D01*
X1294000Y531330D01*
X1284670Y526330D01*
X1251330D01*
G01X1284670D02*
X1304670Y478000D01*
G01X1333670Y561330D02*
X1341670Y571330D01*
X1351000Y576330D01*
X1361670Y578000D01*
X1375000Y574670D01*
X1384330Y566330D01*
X1387000Y556330D01*
X1385670Y546330D01*
X1380330Y538000D01*
X1353670Y521330D01*
X1341670Y509670D01*
X1333670Y493000D01*
X1331000Y478000D01*
X1387000D01*
G01X1410670Y493000D02*
X1418670Y484670D01*
X1428000Y479670D01*
X1440000Y478000D01*
X1452000Y481330D01*
X1461330Y488000D01*
X1468000Y499670D01*
X1469330Y513000D01*
X1466670Y526330D01*
X1460000Y534670D01*
X1450670Y541330D01*
X1441330Y543000D01*
X1432000Y541330D01*
X1420000Y534670D01*
X1424000Y578000D01*
X1460000D01*
G01X1208000Y1085000D02*
X1197330Y1086670D01*
X1188000Y1093330D01*
X1180000Y1103330D01*
X1174670Y1115000D01*
X1172000Y1128330D01*
Y1141670D01*
X1174670Y1155000D01*
X1180000Y1166670D01*
X1188000Y1176670D01*
X1197330Y1183330D01*
X1208000Y1185000D01*
X1218670Y1183330D01*
X1228000Y1176670D01*
X1236000Y1166670D01*
X1241330Y1155000D01*
X1244000Y1141670D01*
Y1128330D01*
X1241330Y1115000D01*
X1236000Y1103330D01*
X1228000Y1093330D01*
X1218670Y1086670D01*
X1208000Y1085000D01*
G01X1218670Y1111670D02*
X1234670Y1085000D01*
G01X1289000D02*
X1298330Y1086670D01*
X1309000Y1091670D01*
X1315670Y1100000D01*
X1318330Y1111670D01*
X1315670Y1123330D01*
X1307670Y1133330D01*
X1295670Y1138330D01*
X1282330D01*
X1274330Y1141670D01*
X1267670Y1150000D01*
X1265000Y1161670D01*
X1269000Y1173330D01*
X1278330Y1181670D01*
X1289000Y1185000D01*
X1299670Y1181670D01*
X1309000Y1173330D01*
X1313000Y1161670D01*
X1310330Y1150000D01*
X1303670Y1141670D01*
X1295670Y1138330D01*
X1282330D01*
X1270330Y1133330D01*
X1262330Y1123330D01*
X1259670Y1111670D01*
X1262330Y1100000D01*
X1269000Y1091670D01*
X1279670Y1086670D01*
X1289000Y1085000D01*
G01X1896000Y1297000D02*
X1885330Y1298670D01*
X1876000Y1305330D01*
X1868000Y1315330D01*
X1862670Y1327000D01*
X1860000Y1340330D01*
Y1353670D01*
X1862670Y1367000D01*
X1868000Y1378670D01*
X1876000Y1388670D01*
X1885330Y1395330D01*
X1896000Y1397000D01*
X1906670Y1395330D01*
X1916000Y1388670D01*
X1924000Y1378670D01*
X1929330Y1367000D01*
X1932000Y1353670D01*
Y1340330D01*
X1929330Y1327000D01*
X1924000Y1315330D01*
X1916000Y1305330D01*
X1906670Y1298670D01*
X1896000Y1297000D01*
G01X1906670Y1323670D02*
X1922670Y1297000D01*
G01X1954330Y1308660D02*
X1963670Y1300330D01*
X1974330Y1297000D01*
X1985000Y1300330D01*
X1994330Y1310330D01*
X2001000Y1325330D01*
X2003670Y1340330D01*
Y1358670D01*
X2001000Y1373670D01*
X1994330Y1387000D01*
X1986330Y1393670D01*
X1977000Y1397000D01*
X1966330Y1393670D01*
X1958330Y1387000D01*
X1953000Y1377000D01*
X1950330Y1363660D01*
X1953000Y1352000D01*
X1959670Y1340330D01*
X1967670Y1333660D01*
X1977000Y1332000D01*
X1987670Y1335330D01*
X1995670Y1343670D01*
X2003670Y1358670D01*
G01X1647330Y864000D02*
Y964000D01*
X1680670D01*
X1691330Y959000D01*
X1698000Y952330D01*
X1700670Y939000D01*
X1698000Y925670D01*
X1690000Y917330D01*
X1680670Y912330D01*
X1647330D01*
G01X1680670D02*
X1700670Y864000D01*
G01X1729670Y947330D02*
X1737670Y957330D01*
X1747000Y962330D01*
X1757670Y964000D01*
X1771000Y960670D01*
X1780330Y952330D01*
X1783000Y942330D01*
X1781670Y932330D01*
X1776330Y924000D01*
X1749670Y907330D01*
X1737670Y895670D01*
X1729670Y879000D01*
X1727000Y864000D01*
X1783000D01*
G01X1806670Y884000D02*
X1814670Y872330D01*
X1825330Y865670D01*
X1837330Y864000D01*
X1848000Y865670D01*
X1858670Y874000D01*
X1865330Y884000D01*
X1866670Y894000D01*
X1864000Y905660D01*
X1854670Y914000D01*
X1845330Y917330D01*
X1833330D01*
G01X1845330D02*
X1853330Y922330D01*
X1860000Y930660D01*
X1862670Y940670D01*
X1860000Y950670D01*
X1853330Y959000D01*
X1841330Y964000D01*
X1829330Y962330D01*
X1817330Y955670D01*
G01X1794680Y2096100D02*
X1784010Y2097770D01*
X1774680Y2104430D01*
X1766680Y2114430D01*
X1761350Y2126100D01*
X1758680Y2139430D01*
Y2152770D01*
X1761350Y2166100D01*
X1766680Y2177770D01*
X1774680Y2187770D01*
X1784010Y2194430D01*
X1794680Y2196100D01*
X1805350Y2194430D01*
X1814680Y2187770D01*
X1822680Y2177770D01*
X1828010Y2166100D01*
X1830680Y2152770D01*
Y2139430D01*
X1828010Y2126100D01*
X1822680Y2114430D01*
X1814680Y2104430D01*
X1805350Y2097770D01*
X1794680Y2096100D01*
G01X1805350Y2122770D02*
X1821350Y2096100D01*
G01X1850350Y2137760D02*
X1859680Y2149430D01*
X1867680Y2156100D01*
X1878350Y2159430D01*
X1887680Y2156100D01*
X1894350Y2149430D01*
X1899680Y2139430D01*
X1901010Y2127770D01*
X1899680Y2117770D01*
X1894350Y2107760D01*
X1886350Y2099430D01*
X1877010Y2096100D01*
X1866350Y2099430D01*
X1857010Y2109430D01*
X1851680Y2124430D01*
X1850350Y2141100D01*
X1853010Y2162760D01*
X1857010Y2174430D01*
X1863680Y2186100D01*
X1873010Y2194430D01*
X1882350Y2196100D01*
X1891680Y2192770D01*
X1898350Y2184430D01*
G01X1788680Y2578100D02*
X1778010Y2579770D01*
X1768680Y2586430D01*
X1760680Y2596430D01*
X1755350Y2608100D01*
X1752680Y2621430D01*
Y2634770D01*
X1755350Y2648100D01*
X1760680Y2659770D01*
X1768680Y2669770D01*
X1778010Y2676430D01*
X1788680Y2678100D01*
X1799350Y2676430D01*
X1808680Y2669770D01*
X1816680Y2659770D01*
X1822010Y2648100D01*
X1824680Y2634770D01*
Y2621430D01*
X1822010Y2608100D01*
X1816680Y2596430D01*
X1808680Y2586430D01*
X1799350Y2579770D01*
X1788680Y2578100D01*
G01X1799350Y2604770D02*
X1815350Y2578100D01*
G01X1840350Y2593100D02*
X1848350Y2584770D01*
X1857680Y2579770D01*
X1869680Y2578100D01*
X1881680Y2581430D01*
X1891010Y2588100D01*
X1897680Y2599770D01*
X1899010Y2613100D01*
X1896350Y2626430D01*
X1889680Y2634770D01*
X1880350Y2641430D01*
X1871010Y2643100D01*
X1861680Y2641430D01*
X1849680Y2634770D01*
X1853680Y2678100D01*
X1889680D01*
G01X1501000Y2268330D02*
X1401000D01*
Y2301670D01*
X1406000Y2312330D01*
X1412670Y2319000D01*
X1426000Y2321670D01*
X1439330Y2319000D01*
X1447670Y2311000D01*
X1452670Y2301670D01*
Y2268330D01*
G01Y2301670D02*
X1501000Y2321670D01*
G01Y2376000D02*
X1401000D01*
X1421000Y2360000D01*
G01X1501000D02*
Y2392000D01*
G01Y2473000D02*
X1401000D01*
X1472670Y2423670D01*
Y2490330D01*
G01X1603000Y3223000D02*
X1592330Y3224670D01*
X1583000Y3231330D01*
X1575000Y3241330D01*
X1569670Y3253000D01*
X1567000Y3266330D01*
Y3279670D01*
X1569670Y3293000D01*
X1575000Y3304670D01*
X1583000Y3314670D01*
X1592330Y3321330D01*
X1603000Y3323000D01*
X1613670Y3321330D01*
X1623000Y3314670D01*
X1631000Y3304670D01*
X1636330Y3293000D01*
X1639000Y3279670D01*
Y3266330D01*
X1636330Y3253000D01*
X1631000Y3241330D01*
X1623000Y3231330D01*
X1613670Y3224670D01*
X1603000Y3223000D01*
G01X1613670Y3249670D02*
X1629670Y3223000D01*
G01X1684000D02*
Y3323000D01*
X1668000Y3303000D01*
G01Y3223000D02*
X1700000D01*
G01X1777000Y3463330D02*
X1677000D01*
Y3496670D01*
X1682000Y3507330D01*
X1688670Y3514000D01*
X1702000Y3516670D01*
X1715330Y3514000D01*
X1723670Y3506000D01*
X1728670Y3496670D01*
Y3463330D01*
G01Y3496670D02*
X1777000Y3516670D01*
G01X1762000Y3541670D02*
X1770330Y3549670D01*
X1775330Y3559000D01*
X1777000Y3571000D01*
X1773670Y3583000D01*
X1767000Y3592330D01*
X1755330Y3599000D01*
X1742000Y3600330D01*
X1728670Y3597670D01*
X1720330Y3591000D01*
X1713670Y3581670D01*
X1712000Y3572330D01*
X1713670Y3563000D01*
X1720330Y3551000D01*
X1677000Y3555000D01*
Y3591000D01*
G01X2559330Y214000D02*
Y314000D01*
X2592670D01*
X2603330Y309000D01*
X2610000Y302330D01*
X2612670Y289000D01*
X2610000Y275670D01*
X2602000Y267330D01*
X2592670Y262330D01*
X2559330D01*
G01X2592670D02*
X2612670Y214000D01*
G01X2641670Y297330D02*
X2649670Y307330D01*
X2659000Y312330D01*
X2669670Y314000D01*
X2683000Y310670D01*
X2692330Y302330D01*
X2695000Y292330D01*
X2693670Y282330D01*
X2688330Y274000D01*
X2661670Y257330D01*
X2649670Y245670D01*
X2641670Y229000D01*
X2639000Y214000D01*
X2695000D01*
G01X2764000D02*
Y314000D01*
X2714670Y242330D01*
X2781330D01*
G01X2185330Y1261000D02*
Y1361000D01*
X2218670D01*
X2229330Y1356000D01*
X2236000Y1349330D01*
X2238670Y1336000D01*
X2236000Y1322670D01*
X2228000Y1314330D01*
X2218670Y1309330D01*
X2185330D01*
G01X2218670D02*
X2238670Y1261000D01*
G01X2293000D02*
Y1361000D01*
X2277000Y1341000D01*
G01Y1261000D02*
X2309000D01*
G01X2351330Y1272660D02*
X2360670Y1264330D01*
X2371330Y1261000D01*
X2382000Y1264330D01*
X2391330Y1274330D01*
X2398000Y1289330D01*
X2400670Y1304330D01*
Y1322670D01*
X2398000Y1337670D01*
X2391330Y1351000D01*
X2383330Y1357670D01*
X2374000Y1361000D01*
X2363330Y1357670D01*
X2355330Y1351000D01*
X2350000Y1341000D01*
X2347330Y1327660D01*
X2350000Y1316000D01*
X2356670Y1304330D01*
X2364670Y1297660D01*
X2374000Y1296000D01*
X2384670Y1299330D01*
X2392670Y1307670D01*
X2400670Y1322670D01*
G01X2667330Y1207000D02*
Y1307000D01*
X2700670D01*
X2711330Y1302000D01*
X2718000Y1295330D01*
X2720670Y1282000D01*
X2718000Y1268670D01*
X2710000Y1260330D01*
X2700670Y1255330D01*
X2667330D01*
G01X2700670D02*
X2720670Y1207000D01*
G01X2749670Y1290330D02*
X2757670Y1300330D01*
X2767000Y1305330D01*
X2777670Y1307000D01*
X2791000Y1303670D01*
X2800330Y1295330D01*
X2803000Y1285330D01*
X2801670Y1275330D01*
X2796330Y1267000D01*
X2769670Y1250330D01*
X2757670Y1238670D01*
X2749670Y1222000D01*
X2747000Y1207000D01*
X2803000D01*
G01X2856000Y1307000D02*
X2845330Y1303670D01*
X2837330Y1295330D01*
X2832000Y1285330D01*
X2828000Y1272000D01*
X2826670Y1257000D01*
X2828000Y1242000D01*
X2832000Y1228670D01*
X2837330Y1218660D01*
X2845330Y1210330D01*
X2856000Y1207000D01*
X2866670Y1210330D01*
X2874670Y1218660D01*
X2880000Y1228670D01*
X2884000Y1242000D01*
X2885330Y1257000D01*
X2884000Y1272000D01*
X2880000Y1285330D01*
X2874670Y1295330D01*
X2866670Y1303670D01*
X2856000Y1307000D01*
G01X2353330Y1819000D02*
Y1919000D01*
X2386670D01*
X2397330Y1914000D01*
X2404000Y1907330D01*
X2406670Y1894000D01*
X2404000Y1880670D01*
X2396000Y1872330D01*
X2386670Y1867330D01*
X2353330D01*
G01X2386670D02*
X2406670Y1819000D01*
G01X2461000D02*
Y1919000D01*
X2445000Y1899000D01*
G01Y1819000D02*
X2477000D01*
G01X2516670Y1860660D02*
X2526000Y1872330D01*
X2534000Y1879000D01*
X2544670Y1882330D01*
X2554000Y1879000D01*
X2560670Y1872330D01*
X2566000Y1862330D01*
X2567330Y1850670D01*
X2566000Y1840670D01*
X2560670Y1830660D01*
X2552670Y1822330D01*
X2543330Y1819000D01*
X2532670Y1822330D01*
X2523330Y1832330D01*
X2518000Y1847330D01*
X2516670Y1864000D01*
X2519330Y1885660D01*
X2523330Y1897330D01*
X2530000Y1909000D01*
X2539330Y1917330D01*
X2548670Y1919000D01*
X2558000Y1915670D01*
X2564670Y1907330D01*
G01X2396000Y2070000D02*
X2385330Y2071670D01*
X2376000Y2078330D01*
X2368000Y2088330D01*
X2362670Y2100000D01*
X2360000Y2113330D01*
Y2126670D01*
X2362670Y2140000D01*
X2368000Y2151670D01*
X2376000Y2161670D01*
X2385330Y2168330D01*
X2396000Y2170000D01*
X2406670Y2168330D01*
X2416000Y2161670D01*
X2424000Y2151670D01*
X2429330Y2140000D01*
X2432000Y2126670D01*
Y2113330D01*
X2429330Y2100000D01*
X2424000Y2088330D01*
X2416000Y2078330D01*
X2406670Y2071670D01*
X2396000Y2070000D01*
G01X2406670Y2096670D02*
X2422670Y2070000D01*
G01X2477000D02*
Y2170000D01*
X2461000Y2150000D01*
G01Y2070000D02*
X2493000D01*
G01X2558000Y2170000D02*
X2547330Y2166670D01*
X2539330Y2158330D01*
X2534000Y2148330D01*
X2530000Y2135000D01*
X2528670Y2120000D01*
X2530000Y2105000D01*
X2534000Y2091670D01*
X2539330Y2081660D01*
X2547330Y2073330D01*
X2558000Y2070000D01*
X2568670Y2073330D01*
X2576670Y2081660D01*
X2582000Y2091670D01*
X2586000Y2105000D01*
X2587330Y2120000D01*
X2586000Y2135000D01*
X2582000Y2148330D01*
X2576670Y2158330D01*
X2568670Y2166670D01*
X2558000Y2170000D01*
G01X2310000Y2611000D02*
X2299330Y2612670D01*
X2290000Y2619330D01*
X2282000Y2629330D01*
X2276670Y2641000D01*
X2274000Y2654330D01*
Y2667670D01*
X2276670Y2681000D01*
X2282000Y2692670D01*
X2290000Y2702670D01*
X2299330Y2709330D01*
X2310000Y2711000D01*
X2320670Y2709330D01*
X2330000Y2702670D01*
X2338000Y2692670D01*
X2343330Y2681000D01*
X2346000Y2667670D01*
Y2654330D01*
X2343330Y2641000D01*
X2338000Y2629330D01*
X2330000Y2619330D01*
X2320670Y2612670D01*
X2310000Y2611000D01*
G01X2320670Y2637670D02*
X2336670Y2611000D01*
G01X2361670Y2631000D02*
X2369670Y2619330D01*
X2380330Y2612670D01*
X2392330Y2611000D01*
X2403000Y2612670D01*
X2413670Y2621000D01*
X2420330Y2631000D01*
X2421670Y2641000D01*
X2419000Y2652660D01*
X2409670Y2661000D01*
X2400330Y2664330D01*
X2388330D01*
G01X2400330D02*
X2408330Y2669330D01*
X2415000Y2677660D01*
X2417670Y2687670D01*
X2415000Y2697670D01*
X2408330Y2706000D01*
X2396330Y2711000D01*
X2384330Y2709330D01*
X2372330Y2702670D01*
G01X2636000Y2309330D02*
X2536000D01*
Y2342670D01*
X2541000Y2353330D01*
X2547670Y2360000D01*
X2561000Y2362670D01*
X2574330Y2360000D01*
X2582670Y2352000D01*
X2587670Y2342670D01*
Y2309330D01*
G01Y2342670D02*
X2636000Y2362670D01*
G01Y2417000D02*
X2634330Y2426330D01*
X2629330Y2437000D01*
X2621000Y2443670D01*
X2609330Y2446330D01*
X2597670Y2443670D01*
X2587670Y2435670D01*
X2582670Y2423670D01*
Y2410330D01*
X2579330Y2402330D01*
X2571000Y2395670D01*
X2559330Y2393000D01*
X2547670Y2397000D01*
X2539330Y2406330D01*
X2536000Y2417000D01*
X2539330Y2427670D01*
X2547670Y2437000D01*
X2559330Y2441000D01*
X2571000Y2438330D01*
X2579330Y2431670D01*
X2582670Y2423670D01*
Y2410330D01*
X2587670Y2398330D01*
X2597670Y2390330D01*
X2609330Y2387670D01*
X2621000Y2390330D01*
X2629330Y2397000D01*
X2634330Y2407670D01*
X2636000Y2417000D01*
G01X2525000Y3104000D02*
X2514330Y3105670D01*
X2505000Y3112330D01*
X2497000Y3122330D01*
X2491670Y3134000D01*
X2489000Y3147330D01*
Y3160670D01*
X2491670Y3174000D01*
X2497000Y3185670D01*
X2505000Y3195670D01*
X2514330Y3202330D01*
X2525000Y3204000D01*
X2535670Y3202330D01*
X2545000Y3195670D01*
X2553000Y3185670D01*
X2558330Y3174000D01*
X2561000Y3160670D01*
Y3147330D01*
X2558330Y3134000D01*
X2553000Y3122330D01*
X2545000Y3112330D01*
X2535670Y3105670D01*
X2525000Y3104000D01*
G01X2535670Y3130670D02*
X2551670Y3104000D01*
G01X2580670Y3187330D02*
X2588670Y3197330D01*
X2598000Y3202330D01*
X2608670Y3204000D01*
X2622000Y3200670D01*
X2631330Y3192330D01*
X2634000Y3182330D01*
X2632670Y3172330D01*
X2627330Y3164000D01*
X2600670Y3147330D01*
X2588670Y3135670D01*
X2580670Y3119000D01*
X2578000Y3104000D01*
X2634000D01*
G01X2020330Y3582000D02*
Y3682000D01*
X2053670D01*
X2064330Y3677000D01*
X2071000Y3670330D01*
X2073670Y3657000D01*
X2071000Y3643670D01*
X2063000Y3635330D01*
X2053670Y3630330D01*
X2020330D01*
G01X2053670D02*
X2073670Y3582000D01*
G01X2128000D02*
Y3682000D01*
X2112000Y3662000D01*
G01Y3582000D02*
X2144000D01*
G01X2209000Y3682000D02*
X2198330Y3678670D01*
X2190330Y3670330D01*
X2185000Y3660330D01*
X2181000Y3647000D01*
X2179670Y3632000D01*
X2181000Y3617000D01*
X2185000Y3603670D01*
X2190330Y3593660D01*
X2198330Y3585330D01*
X2209000Y3582000D01*
X2219670Y3585330D01*
X2227670Y3593660D01*
X2233000Y3603670D01*
X2237000Y3617000D01*
X2238330Y3632000D01*
X2237000Y3647000D01*
X2233000Y3660330D01*
X2227670Y3670330D01*
X2219670Y3678670D01*
X2209000Y3682000D01*
G01X2433330Y3737000D02*
Y3837000D01*
X2466670D01*
X2477330Y3832000D01*
X2484000Y3825330D01*
X2486670Y3812000D01*
X2484000Y3798670D01*
X2476000Y3790330D01*
X2466670Y3785330D01*
X2433330D01*
G01X2466670D02*
X2486670Y3737000D01*
G01X2515670Y3778660D02*
X2525000Y3790330D01*
X2533000Y3797000D01*
X2543670Y3800330D01*
X2553000Y3797000D01*
X2559670Y3790330D01*
X2565000Y3780330D01*
X2566330Y3768670D01*
X2565000Y3758670D01*
X2559670Y3748660D01*
X2551670Y3740330D01*
X2542330Y3737000D01*
X2531670Y3740330D01*
X2522330Y3750330D01*
X2517000Y3765330D01*
X2515670Y3782000D01*
X2518330Y3803660D01*
X2522330Y3815330D01*
X2529000Y3827000D01*
X2538330Y3835330D01*
X2547670Y3837000D01*
X2557000Y3833670D01*
X2563670Y3825330D01*
G01X3455330Y779000D02*
Y879000D01*
X3488670D01*
X3499330Y874000D01*
X3506000Y867330D01*
X3508670Y854000D01*
X3506000Y840670D01*
X3498000Y832330D01*
X3488670Y827330D01*
X3455330D01*
G01X3488670D02*
X3508670Y779000D01*
G01X3537670Y862330D02*
X3545670Y872330D01*
X3555000Y877330D01*
X3565670Y879000D01*
X3579000Y875670D01*
X3588330Y867330D01*
X3591000Y857330D01*
X3589670Y847330D01*
X3584330Y839000D01*
X3557670Y822330D01*
X3545670Y810670D01*
X3537670Y794000D01*
X3535000Y779000D01*
X3591000D01*
G01X3644000D02*
Y879000D01*
X3628000Y859000D01*
G01Y779000D02*
X3660000D01*
G01X3133330Y766000D02*
Y866000D01*
X3166670D01*
X3177330Y861000D01*
X3184000Y854330D01*
X3186670Y841000D01*
X3184000Y827670D01*
X3176000Y819330D01*
X3166670Y814330D01*
X3133330D01*
G01X3166670D02*
X3186670Y766000D01*
G01X3215670Y849330D02*
X3223670Y859330D01*
X3233000Y864330D01*
X3243670Y866000D01*
X3257000Y862670D01*
X3266330Y854330D01*
X3269000Y844330D01*
X3267670Y834330D01*
X3262330Y826000D01*
X3235670Y809330D01*
X3223670Y797670D01*
X3215670Y781000D01*
X3213000Y766000D01*
X3269000D01*
G01X3296670Y849330D02*
X3304670Y859330D01*
X3314000Y864330D01*
X3324670Y866000D01*
X3338000Y862670D01*
X3347330Y854330D01*
X3350000Y844330D01*
X3348670Y834330D01*
X3343330Y826000D01*
X3316670Y809330D01*
X3304670Y797670D01*
X3296670Y781000D01*
X3294000Y766000D01*
X3350000D01*
G01X2736670Y2637000D02*
Y2737000D01*
X2763330D01*
X2774000Y2732000D01*
X2782000Y2725330D01*
X2788670Y2715330D01*
X2794000Y2703660D01*
X2795330Y2687000D01*
X2794000Y2670330D01*
X2788670Y2658670D01*
X2782000Y2648660D01*
X2774000Y2642000D01*
X2763330Y2637000D01*
X2736670D01*
G01X2817670Y2657000D02*
X2825670Y2645330D01*
X2836330Y2638670D01*
X2848330Y2637000D01*
X2859000Y2638670D01*
X2869670Y2647000D01*
X2876330Y2657000D01*
X2877670Y2667000D01*
X2875000Y2678660D01*
X2865670Y2687000D01*
X2856330Y2690330D01*
X2844330D01*
G01X2856330D02*
X2864330Y2695330D01*
X2871000Y2703660D01*
X2873670Y2713670D01*
X2871000Y2723670D01*
X2864330Y2732000D01*
X2852330Y2737000D01*
X2840330Y2735330D01*
X2828330Y2728670D01*
G01X3025330Y2831000D02*
Y2931000D01*
X3058670D01*
X3069330Y2926000D01*
X3076000Y2919330D01*
X3078670Y2906000D01*
X3076000Y2892670D01*
X3068000Y2884330D01*
X3058670Y2879330D01*
X3025330D01*
G01X3058670D02*
X3078670Y2831000D01*
G01X3103670Y2851000D02*
X3111670Y2839330D01*
X3122330Y2832670D01*
X3134330Y2831000D01*
X3145000Y2832670D01*
X3155670Y2841000D01*
X3162330Y2851000D01*
X3163670Y2861000D01*
X3161000Y2872660D01*
X3151670Y2881000D01*
X3142330Y2884330D01*
X3130330D01*
G01X3142330D02*
X3150330Y2889330D01*
X3157000Y2897660D01*
X3159670Y2907670D01*
X3157000Y2917670D01*
X3150330Y2926000D01*
X3138330Y2931000D01*
X3126330Y2929330D01*
X3114330Y2922670D01*
G01X3016330Y2421000D02*
Y2521000D01*
X3049670D01*
X3060330Y2516000D01*
X3067000Y2509330D01*
X3069670Y2496000D01*
X3067000Y2482670D01*
X3059000Y2474330D01*
X3049670Y2469330D01*
X3016330D01*
G01X3049670D02*
X3069670Y2421000D01*
G01X3140000D02*
Y2521000D01*
X3090670Y2449330D01*
X3157330D01*
G01X3138330Y3485670D02*
X3130330Y3490670D01*
X3121000Y3494000D01*
X3110330D01*
X3098330Y3489000D01*
X3089000Y3480670D01*
X3082330Y3470670D01*
X3077000Y3454000D01*
X3075670Y3439000D01*
X3078330Y3424000D01*
X3082330Y3414000D01*
X3090330Y3404000D01*
X3099670Y3397330D01*
X3109000Y3394000D01*
X3118330D01*
X3127670Y3397330D01*
X3135670Y3402330D01*
X3142330Y3409000D01*
G01X3190000Y3394000D02*
Y3494000D01*
X3174000Y3474000D01*
G01Y3394000D02*
X3206000D01*
G01X3848000Y2775330D02*
X3748000D01*
Y2808670D01*
X3753000Y2819330D01*
X3759670Y2826000D01*
X3773000Y2828670D01*
X3786330Y2826000D01*
X3794670Y2818000D01*
X3799670Y2808670D01*
Y2775330D01*
G01Y2808670D02*
X3848000Y2828670D01*
G01X3836340Y2860330D02*
X3844670Y2869670D01*
X3848000Y2880330D01*
X3844670Y2891000D01*
X3834670Y2900330D01*
X3819670Y2907000D01*
X3804670Y2909670D01*
X3786330D01*
X3771330Y2907000D01*
X3758000Y2900330D01*
X3751330Y2892330D01*
X3748000Y2883000D01*
X3751330Y2872330D01*
X3758000Y2864330D01*
X3768000Y2859000D01*
X3781340Y2856330D01*
X3793000Y2859000D01*
X3804670Y2865670D01*
X3811340Y2873670D01*
X3813000Y2883000D01*
X3809670Y2893670D01*
X3801330Y2901670D01*
X3786330Y2909670D01*
G01X3864000Y2288330D02*
X3764000D01*
Y2321670D01*
X3769000Y2332330D01*
X3775670Y2339000D01*
X3789000Y2341670D01*
X3802330Y2339000D01*
X3810670Y2331000D01*
X3815670Y2321670D01*
Y2288330D01*
G01Y2321670D02*
X3864000Y2341670D01*
G01Y2396000D02*
X3764000D01*
X3784000Y2380000D01*
G01X3864000D02*
Y2412000D01*
G01Y2474330D02*
X3842330Y2477000D01*
X3824000Y2481000D01*
X3807330Y2486330D01*
X3789000Y2493000D01*
X3764000Y2503670D01*
Y2450330D01*
G01X3550000Y3182000D02*
X3539330Y3183670D01*
X3530000Y3190330D01*
X3522000Y3200330D01*
X3516670Y3212000D01*
X3514000Y3225330D01*
Y3238670D01*
X3516670Y3252000D01*
X3522000Y3263670D01*
X3530000Y3273670D01*
X3539330Y3280330D01*
X3550000Y3282000D01*
X3560670Y3280330D01*
X3570000Y3273670D01*
X3578000Y3263670D01*
X3583330Y3252000D01*
X3586000Y3238670D01*
Y3225330D01*
X3583330Y3212000D01*
X3578000Y3200330D01*
X3570000Y3190330D01*
X3560670Y3183670D01*
X3550000Y3182000D01*
G01X3560670Y3208670D02*
X3576670Y3182000D01*
G01X3647000D02*
Y3282000D01*
X3597670Y3210330D01*
X3664330D01*
G01X3624330Y3696000D02*
Y3796000D01*
X3657670D01*
X3668330Y3791000D01*
X3675000Y3784330D01*
X3677670Y3771000D01*
X3675000Y3757670D01*
X3667000Y3749330D01*
X3657670Y3744330D01*
X3624330D01*
G01X3657670D02*
X3677670Y3696000D01*
G01X3729330D02*
X3732000Y3717670D01*
X3736000Y3736000D01*
X3741330Y3752670D01*
X3748000Y3771000D01*
X3758670Y3796000D01*
X3705330D01*
G01X1387260Y1312280D02*
X1082460D01*
Y1454520D01*
X1387260D01*
Y1312280D01*
G01X1364260Y1954280D02*
X1059460D01*
Y2096520D01*
X1364260D01*
Y1954280D01*
G01X1601280Y1193740D02*
Y1498540D01*
X1743520D01*
Y1193740D01*
X1601280D01*
G01X1729280Y1755740D02*
Y2060540D01*
X1871520D01*
Y1755740D01*
X1729280D01*
G01X1723280Y2237740D02*
Y2542540D01*
X1865520D01*
Y2237740D01*
X1723280D01*
G01X1297280Y2969740D02*
Y3274540D01*
X1439520D01*
Y2969740D01*
X1297280D01*
G01X1773280Y2971740D02*
Y3276540D01*
X1915520D01*
Y2971740D01*
X1773280D01*
G01X2477260Y2304280D02*
X2172460D01*
Y2446520D01*
X2477260D01*
Y2304280D01*
G01X2222280Y2969740D02*
Y3274540D01*
X2364520D01*
Y2969740D01*
X2222280D01*
G01X2887720Y3077260D02*
Y2772460D01*
X2745480D01*
Y3077260D01*
X2887720D01*
G01X3478260Y3059280D02*
X3173460D01*
Y3201520D01*
X3478260D01*
Y3059280D01*
G54D11*
G01X2682500Y500000D02*
Y725000D01*
G01Y465000D02*
G03X2832500Y615000I0J150000D01*
G03X2677500Y765000I-150081J0D01*
G03X2532500Y615000I4915J-149834D01*
G03X2682500Y465000I150000J0D01*
G01X2432500Y590000D02*
Y640000D01*
G01X2932500Y475000D02*
Y365000D01*
X2432500D01*
Y395000D01*
G01X2797500Y615000D02*
X2567500D01*
G01X2932500Y755000D02*
Y865000D01*
X2432500D01*
Y835000D01*
G54D12*
G01X185130Y830500D02*
Y449500D01*
G01D02*
X1061430D01*
G01Y830500D02*
X185130D01*
G01X277750Y1260120D02*
Y1666520D01*
G01X468250Y1260120D02*
X277750D01*
G01Y1666520D02*
X468250D01*
G01X1061430Y449500D02*
Y830500D01*
G01X881250Y1668880D02*
Y1262480D01*
G01D02*
X690750D01*
G01D02*
Y1668880D01*
G01X468250Y1666520D02*
Y1260120D01*
G01X735250Y2113880D02*
Y1707480D01*
G01D02*
X544750D01*
G01D02*
Y2113880D01*
G01D02*
X735250D01*
G01X690750Y1668880D02*
X881250D01*
G01X880750Y2812120D02*
Y3218520D01*
G01X1071250D02*
Y2812120D01*
G01D02*
X880750D01*
G01X538750Y2254120D02*
Y2660520D01*
G01D02*
X729250D01*
G01D02*
Y2254120D01*
G01D02*
X538750D01*
G01X1060250Y2665880D02*
Y2259480D01*
G01D02*
X869750D01*
G01D02*
Y2665880D01*
G01D02*
X1060250D01*
G01X761570Y3790500D02*
Y3409500D01*
G01D02*
X1637870D01*
G01X880750Y3218520D02*
X1071250D01*
G01X1637870Y3790500D02*
X761570D01*
G01X1729250Y811880D02*
Y405480D01*
G01D02*
X1538750D01*
G01D02*
Y811880D01*
G01X1923750Y631120D02*
Y1037520D01*
G01D02*
X2114250D01*
G01Y631120D02*
X1923750D01*
G01X1538750Y811880D02*
X1729250D01*
G01X1166750Y2261120D02*
Y2667520D01*
G01D02*
X1357250D01*
G01D02*
Y2261120D01*
G01D02*
X1166750D01*
G01X1773880Y2722750D02*
X1367480D01*
G01D02*
Y2913250D01*
G01X1773880D02*
Y2722750D01*
G01X1637870Y3409500D02*
Y3790500D01*
G01X1804750Y3390120D02*
Y3796520D01*
G01X1995250Y3390120D02*
X1804750D01*
G01X1367480Y2913250D02*
X1773880D01*
G01X1804750Y3796520D02*
X1995250D01*
G01X2585120Y1185250D02*
X2991520D01*
G01Y994750D02*
X2585120D01*
G01D02*
Y1185250D01*
G01X2114250Y1037520D02*
Y631120D01*
G01X2318250Y2117880D02*
Y1711480D01*
G01D02*
X2127750D01*
G01D02*
Y2117880D01*
G01D02*
X2318250D01*
G01X2505880Y1387750D02*
X2099480D01*
G01D02*
Y1578250D01*
G01D02*
X2505880D01*
G01D02*
Y1387750D01*
G01X2855250Y2158480D02*
X2664750D01*
G01D02*
Y2564880D01*
G01D02*
X2855250D01*
G01X1995250Y3796520D02*
Y3390120D01*
G01X2493880Y3369750D02*
X2087480D01*
G01D02*
Y3560250D01*
G01D02*
X2493880D01*
G01D02*
Y3369750D01*
G01X3024880Y3601750D02*
X2618480D01*
G01D02*
Y3792250D01*
G01X3026880Y3328750D02*
X2620480D01*
G01D02*
Y3519250D01*
G01D02*
X3026880D01*
G01X2618480Y3792250D02*
X3024880D01*
G01X2991520Y1185250D02*
Y994750D01*
G01X3148750Y916120D02*
Y1322520D01*
G01D02*
X3339250D01*
G01D02*
Y916120D01*
G01D02*
X3148750D01*
G01X3750600Y1401120D02*
X2963200D01*
G01D02*
Y2071680D01*
G01D02*
X3750600D01*
G01X2855250Y2564880D02*
Y2158480D01*
G01X3206750Y2436120D02*
Y2842520D01*
G01D02*
X3397250D01*
G01D02*
Y2436120D01*
G01D02*
X3206750D01*
G01X3387880Y2193750D02*
X2981480D01*
G01D02*
Y2384250D01*
G01D02*
X3387880D01*
G01D02*
Y2193750D01*
G01X3024880Y3792250D02*
Y3601750D01*
G01X3395750Y3386120D02*
Y3792520D01*
G01X3586250Y3386120D02*
X3395750D01*
G01X3026880Y3519250D02*
Y3328750D01*
G01X3395750Y3792520D02*
X3586250D01*
G01X3456750Y910120D02*
Y1316520D01*
G01D02*
X3647250D01*
G01D02*
Y910120D01*
G01D02*
X3456750D01*
G01X3730250Y3120880D02*
Y2714480D01*
G01D02*
X3539750D01*
G01D02*
Y3120880D01*
G01X3736250Y2633880D02*
Y2227480D01*
G01D02*
X3545750D01*
G01D02*
Y2633880D01*
G01D02*
X3736250D01*
G01X3586250Y3792520D02*
Y3386120D01*
G01X3539750Y3120880D02*
X3730250D01*
M02*
